<svg width="115" height="34" viewBox="0 0 115 34" xmlns="http://www.w3.org/2000/svg">
<g clip-path="url(#clip0_59_2)">
<rect width="115" height="34" fill="white"/>
<path d="M25.2188 13.6855C24.8724 12.0176 24.2344 10.7233 23.3047 9.80273C22.3841 8.88216 21.2767 8.42188 19.9824 8.42188C18.7155 8.42188 17.7311 8.72266 17.0293 9.32422C16.3366 9.92578 15.9902 10.7279 15.9902 11.7305C15.9902 12.2865 16.0404 12.7467 16.1406 13.1113C16.2409 13.4759 16.446 13.8314 16.7559 14.1777C17.0658 14.515 17.5169 14.8158 18.1094 15.0801C18.7018 15.3353 19.4766 15.5814 20.4336 15.8184C20.9531 15.946 21.4043 16.0645 21.7871 16.1738C22.179 16.2832 22.6074 16.4336 23.0723 16.625C23.5462 16.8164 23.9518 17.0215 24.2891 17.2402C24.6354 17.459 24.9772 17.7324 25.3145 18.0605C25.6608 18.3796 25.9388 18.735 26.1484 19.127C26.3672 19.5189 26.5404 19.9837 26.668 20.5215C26.8047 21.0501 26.873 21.6289 26.873 22.2578C26.873 23.0964 26.7181 23.8711 26.4082 24.582C26.0983 25.2839 25.6927 25.8763 25.1914 26.3594C24.6901 26.8424 24.1113 27.2526 23.4551 27.5898C22.7988 27.9271 22.1335 28.1732 21.459 28.3281C20.7845 28.4831 20.1146 28.5605 19.4492 28.5605C17.4258 28.5605 15.2702 28.0365 12.9824 26.9883C13.028 26.0039 13.0508 25.3978 13.0508 25.1699C13.0508 23.6842 12.9277 22.2031 12.6816 20.7266C12.7819 20.6628 12.8822 20.6309 12.9824 20.6309C13.11 20.6309 13.224 20.6628 13.3242 20.7266C13.5156 21.9023 13.8301 22.9414 14.2676 23.8438C14.7142 24.7461 15.2246 25.4616 15.7988 25.9902C16.373 26.5098 16.9655 26.9017 17.5762 27.166C18.196 27.4212 18.8203 27.5488 19.4492 27.5488C20.8802 27.5488 21.9785 27.1797 22.7441 26.4414C23.5189 25.694 23.9062 24.7096 23.9062 23.4883C23.9062 22.2578 23.6191 21.3327 23.0449 20.7129C22.4798 20.084 21.3952 19.5736 19.791 19.1816C17.7858 18.6803 16.2181 17.9421 15.0879 16.9668C13.9668 15.9824 13.4062 14.6836 13.4062 13.0703C13.4062 12.2227 13.543 11.4661 13.8164 10.8008C14.099 10.1263 14.459 9.58854 14.8965 9.1875C15.3431 8.77734 15.8626 8.4401 16.4551 8.17578C17.0475 7.90234 17.6309 7.71549 18.2051 7.61523C18.7884 7.50586 19.3809 7.45117 19.9824 7.45117C21.7871 7.45117 23.6647 7.87044 25.6152 8.70898C25.5605 9.24674 25.5332 9.80729 25.5332 10.3906C25.5332 11.7578 25.6426 12.8561 25.8613 13.6855C25.7428 13.7311 25.6426 13.7539 25.5605 13.7539C25.4694 13.7539 25.3555 13.7311 25.2188 13.6855ZM40.3125 20.7539H32.8613C32.8249 21.3008 32.8066 21.7839 32.8066 22.2031C32.834 23.5612 33.2305 24.6504 33.9961 25.4707C34.7617 26.2819 35.7871 26.6875 37.0723 26.6875C37.4186 26.6875 37.7422 26.651 38.043 26.5781C38.3438 26.4961 38.5898 26.4049 38.7812 26.3047C38.9818 26.2044 39.1868 26.0586 39.3965 25.8672C39.6061 25.6758 39.7565 25.5254 39.8477 25.416C39.9479 25.2975 40.0801 25.1243 40.2441 24.8965C40.4082 24.6595 40.5176 24.5091 40.5723 24.4453C40.791 24.4909 40.9688 24.5911 41.1055 24.7461C40.6497 25.9674 39.9434 26.8835 38.9863 27.4941C38.0293 28.0957 36.9902 28.3965 35.8691 28.3965C35.3132 28.3965 34.7708 28.3236 34.2422 28.1777C33.7227 28.041 33.2168 27.8132 32.7246 27.4941C32.2324 27.1751 31.804 26.7832 31.4395 26.3184C31.0749 25.8444 30.7832 25.2565 30.5645 24.5547C30.3457 23.8438 30.2363 23.0599 30.2363 22.2031C30.2363 20.2799 30.8242 18.694 32 17.4453C33.1758 16.1966 34.6204 15.5723 36.334 15.5723C37.0905 15.5723 37.7467 15.6816 38.3027 15.9004C38.8678 16.11 39.3053 16.3971 39.6152 16.7617C39.9342 17.1263 40.1667 17.5273 40.3125 17.9648C40.4674 18.3932 40.5449 18.8535 40.5449 19.3457C40.5449 19.8014 40.4674 20.2708 40.3125 20.7539ZM36.0059 16.4609C35.377 16.4609 34.7799 16.7389 34.2148 17.2949C33.6589 17.8509 33.2578 18.694 33.0117 19.8242H37.9336C38.0247 19.4779 38.0703 19.1771 38.0703 18.9219C38.0703 18.2109 37.9062 17.623 37.5781 17.1582C37.25 16.6934 36.7259 16.4609 36.0059 16.4609ZM50.2383 8.33984C51.9609 8.17578 53.5013 7.80208 54.8594 7.21875C55.0964 7.31901 55.2513 7.44206 55.3242 7.58789C55.3242 17.9147 55.3652 24.0944 55.4473 26.127C55.4564 26.3639 55.5247 26.569 55.6523 26.7422C55.7891 26.9062 55.9805 27.0339 56.2266 27.125C56.4727 27.2161 56.6777 27.2845 56.8418 27.3301C57.0059 27.3665 57.2201 27.403 57.4844 27.4395C57.5208 27.5853 57.5391 27.6992 57.5391 27.7812C57.5391 27.8359 57.5208 27.9362 57.4844 28.082C57.1654 28.0638 56.8372 28.0456 56.5 28.0273C56.1719 28.0091 55.9121 27.9954 55.7207 27.9863C55.5293 27.9772 55.3516 27.9727 55.1875 27.9727C55.0508 27.9727 54.8958 27.9772 54.7227 27.9863C54.5495 27.9954 54.3125 28.0091 54.0117 28.0273C53.7109 28.0456 53.4147 28.0638 53.123 28.082C53.0775 28.0638 53.0365 28.041 53 28.0137C52.9727 27.9954 52.9499 27.9818 52.9316 27.9727C52.9225 27.9544 52.9089 27.9316 52.8906 27.9043C52.8724 27.8678 52.8587 27.8451 52.8496 27.8359C52.8405 27.8268 52.8268 27.7995 52.8086 27.7539C52.7995 27.6992 52.7904 27.6673 52.7812 27.6582C52.8177 27.4395 52.8359 26.9473 52.8359 26.1816C51.332 27.6582 49.9421 28.3965 48.666 28.3965C47.2624 28.3965 46.1185 27.8678 45.2344 26.8105C44.3503 25.7533 43.9082 24.3132 43.9082 22.4902C43.9082 21.8613 43.9811 21.2324 44.127 20.6035C44.2728 19.9746 44.5143 19.3548 44.8516 18.7441C45.1888 18.1335 45.6035 17.5957 46.0957 17.1309C46.5879 16.666 47.2122 16.2923 47.9688 16.0098C48.7253 15.7181 49.5638 15.5723 50.4844 15.5723C51.168 15.5723 51.9701 15.7181 52.8906 16.0098C52.8724 14.278 52.8633 12.1224 52.8633 9.54297C52.3438 9.24219 51.4688 9.05534 50.2383 8.98242C50.2018 8.83659 50.1836 8.72721 50.1836 8.6543C50.1836 8.59049 50.2018 8.48568 50.2383 8.33984ZM49.9785 26.6055C50.89 26.6055 51.8516 26.1178 52.8633 25.1426C52.8815 24.2493 52.8906 22.5586 52.8906 20.0703V18.0879C52.2617 17.0033 51.3001 16.4609 50.0059 16.4609C49.7324 16.4609 49.459 16.502 49.1855 16.584C48.9121 16.666 48.6204 16.8301 48.3105 17.0762C48.0007 17.3223 47.7272 17.6367 47.4902 18.0195C47.2624 18.4023 47.071 18.9355 46.916 19.6191C46.7611 20.2936 46.6836 21.0729 46.6836 21.957C46.6836 23.306 46.9616 24.418 47.5176 25.293C48.0827 26.168 48.903 26.6055 49.9785 26.6055ZM66.084 15.5723C66.9863 15.5723 67.7975 15.7318 68.5176 16.0508C69.2467 16.3698 69.8665 16.8118 70.377 17.377C70.8874 17.9421 71.2793 18.6211 71.5527 19.4141C71.8262 20.1979 71.9629 21.0547 71.9629 21.9844C71.9629 23.8802 71.4297 25.4206 70.3633 26.6055C69.306 27.7995 67.8796 28.3965 66.084 28.3965C65.1908 28.3965 64.3796 28.2415 63.6504 27.9316C62.9303 27.6126 62.3151 27.1706 61.8047 26.6055C61.2943 26.0312 60.8978 25.3522 60.6152 24.5684C60.3418 23.7845 60.2051 22.9232 60.2051 21.9844C60.2051 21.0547 60.3418 20.1979 60.6152 19.4141C60.8887 18.6211 61.276 17.9421 61.7773 17.377C62.2878 16.8118 62.9076 16.3698 63.6367 16.0508C64.3659 15.7318 65.1816 15.5723 66.084 15.5723ZM66.084 16.4609C65.1543 16.4609 64.4115 16.9121 63.8555 17.8145C63.3086 18.7168 63.0352 20.1068 63.0352 21.9844C63.0352 23.862 63.3086 25.252 63.8555 26.1543C64.4115 27.0475 65.1543 27.4941 66.084 27.4941C67.0137 27.4941 67.752 27.043 68.2988 26.1406C68.8548 25.2383 69.1328 23.8529 69.1328 21.9844C69.1328 21.0456 69.0599 20.2298 68.9141 19.5371C68.7682 18.8444 68.5632 18.2702 68.2988 17.8145C68.0345 17.3587 67.7155 17.0215 67.3418 16.8027C66.9681 16.5749 66.5488 16.4609 66.084 16.4609ZM81.9297 27.4395C81.9844 27.5488 82.0117 27.6628 82.0117 27.7812C82.0117 27.8724 81.9844 27.9727 81.9297 28.082C80.7266 28.0273 79.5599 28 78.4297 28C77.3177 28 76.1602 28.0273 74.957 28.082C74.9206 27.9362 74.9023 27.8359 74.9023 27.7812C74.9023 27.7357 74.9206 27.6217 74.957 27.4395C75.2578 27.403 75.5039 27.3665 75.6953 27.3301C75.8867 27.2845 76.1237 27.2161 76.4062 27.125C76.6888 27.0339 76.903 26.9062 77.0488 26.7422C77.1947 26.569 77.2721 26.3639 77.2812 26.127C77.3177 25.2246 77.3359 24.1309 77.3359 22.8457C77.3359 22.4173 77.3314 21.6882 77.3223 20.6582C77.3132 19.6283 77.3086 18.7259 77.3086 17.9512C76.7891 17.6322 75.9141 17.4453 74.6836 17.3906C74.6471 17.2448 74.6289 17.1309 74.6289 17.0488C74.6289 16.9941 74.6471 16.8939 74.6836 16.748C76.4518 16.5658 77.9922 16.1921 79.3047 15.627C79.5326 15.7181 79.6921 15.8366 79.7832 15.9824V18.1426C80.6673 17.3678 81.515 16.748 82.3262 16.2832C83.1374 15.8092 83.9577 15.5723 84.7871 15.5723C85.8262 15.5723 86.5599 15.8639 86.9883 16.4473C87.4258 17.0306 87.6536 17.9421 87.6719 19.1816L87.8086 26.127C87.8177 26.3639 87.8861 26.569 88.0137 26.7422C88.1504 26.9062 88.3418 27.0339 88.5879 27.125C88.8431 27.2161 89.0527 27.2845 89.2168 27.3301C89.3809 27.3665 89.5951 27.403 89.8594 27.4395C89.8958 27.6217 89.9141 27.7448 89.9141 27.8086C89.9141 27.8815 89.8958 27.9727 89.8594 28.082C88.6836 28.0273 87.599 28 86.6055 28C85.6393 28 84.5684 28.0273 83.3926 28.082C83.3561 27.9362 83.3379 27.8268 83.3379 27.7539C83.3379 27.6901 83.3561 27.5853 83.3926 27.4395C83.6296 27.403 83.8255 27.3665 83.9805 27.3301C84.1445 27.2845 84.3268 27.2161 84.5273 27.125C84.737 27.0339 84.8919 26.9062 84.9922 26.7422C85.1016 26.569 85.1562 26.3639 85.1562 26.127L85.1836 19.6328C85.1836 17.9831 84.6868 17.1582 83.6934 17.1582C82.7637 17.1582 81.4603 17.778 79.7832 19.0176C79.7832 21.6699 79.8197 24.0397 79.8926 26.127C79.9017 26.3639 79.9701 26.569 80.0977 26.7422C80.2344 26.9062 80.4258 27.0339 80.6719 27.125C80.918 27.2161 81.123 27.2845 81.2871 27.3301C81.4512 27.3665 81.6654 27.403 81.9297 27.4395ZM92.9492 19.0176C92.9492 18.015 93.4049 17.1901 94.3164 16.543C95.237 15.8958 96.3216 15.5723 97.5703 15.5723C99.1016 15.5723 100.177 15.8776 100.797 16.4883C101.426 17.099 101.74 18.1289 101.74 19.5781V25.252C101.74 25.7624 101.927 26.0176 102.301 26.0176C102.602 26.0176 102.984 25.653 103.449 24.9238C103.777 24.9512 104.001 25.097 104.119 25.3613C104.055 25.4525 103.946 25.6165 103.791 25.8535C103.636 26.0905 103.522 26.2591 103.449 26.3594C103.376 26.4596 103.262 26.6146 103.107 26.8242C102.952 27.0247 102.825 27.1751 102.725 27.2754C102.633 27.3757 102.506 27.4941 102.342 27.6309C102.187 27.7676 102.041 27.8724 101.904 27.9453C101.777 28.0091 101.626 28.0638 101.453 28.1094C101.28 28.1641 101.107 28.1914 100.934 28.1914C100.478 28.1914 100.1 28.0273 99.7988 27.6992C99.5072 27.3711 99.334 26.8652 99.2793 26.1816C99.2702 26.1908 99.1289 26.3229 98.8555 26.5781C98.582 26.8333 98.3906 27.0065 98.2812 27.0977C98.181 27.1797 97.985 27.3301 97.6934 27.5488C97.4108 27.7585 97.1693 27.9089 96.9688 28C96.7682 28.0911 96.5176 28.1777 96.2168 28.2598C95.916 28.3509 95.6198 28.3965 95.3281 28.3965C94.8633 28.3965 94.4486 28.3327 94.084 28.2051C93.7285 28.0775 93.4505 27.9225 93.25 27.7402C93.0495 27.5579 92.8854 27.3483 92.7578 27.1113C92.6302 26.8652 92.5436 26.6419 92.498 26.4414C92.4616 26.2409 92.4434 26.0404 92.4434 25.8398C92.4434 25.2292 92.5436 24.7142 92.7441 24.2949C92.9538 23.8757 93.3366 23.4837 93.8926 23.1191C94.4577 22.7546 95.1504 22.431 95.9707 22.1484C96.791 21.8659 97.8939 21.5469 99.2793 21.1914V19.291C99.2793 18.3704 99.0742 17.6823 98.6641 17.2266C98.263 16.7708 97.7207 16.543 97.0371 16.543C96.4264 16.543 95.9115 16.666 95.4922 16.9121C95.082 17.1491 94.8314 17.4271 94.7402 17.7461C95.6335 17.8828 96.0801 18.3704 96.0801 19.209C96.0801 19.5918 95.9434 19.929 95.6699 20.2207C95.3965 20.5124 95.0137 20.6582 94.5215 20.6582C94.1113 20.6582 93.7467 20.5169 93.4277 20.2344C93.1087 19.9427 92.9492 19.5371 92.9492 19.0176ZM99.2793 24.9238V22.0664C98.4408 22.2578 97.748 22.4674 97.2012 22.6953C96.6543 22.9141 96.235 23.1556 95.9434 23.4199C95.6608 23.6842 95.4648 23.9577 95.3555 24.2402C95.2461 24.5137 95.1914 24.8327 95.1914 25.1973C95.1914 25.653 95.3236 26.013 95.5879 26.2773C95.8613 26.5326 96.194 26.6602 96.5859 26.6602C97.4974 26.6602 98.3952 26.0814 99.2793 24.9238Z"/>
</g>
<defs>
<clipPath id="clip0_59_2">
<rect width="115" height="34" fill="white"/>
</clipPath>
</defs>
</svg>
