<svg xmlns="http://www.w3.org/2000/svg" xmlns:xlink="http://www.w3.org/1999/xlink"><defs>
<clipPath id="clip0_47805_160">
<rect width="18" height="17" fill="white"/>
</clipPath>

<clipPath id="clip0_47805_94">
<rect width="16" height="14" fill="white"/>
</clipPath>

<clipPath id="clip0_47805_56">
<rect width="16" height="14" fill="white"/>
</clipPath>

<clipPath id="clip0_59_2">
<rect width="115" height="34" fill="white"/>
</clipPath>

<clipPath id="clip0_47805_160">
<rect width="18" height="17" fill="white"/>
</clipPath>

<clipPath id="clip0_47805_94">
<rect width="16" height="14" fill="white"/>
</clipPath>

<clipPath id="clip0_47805_56">
<rect width="16" height="14" fill="white"/>
</clipPath>
</defs><symbol id="sprite"><symbol id="accommodation" viewBox="0 0 77 72">
<path d="M31.1185 65H47.1827V41.2H31.1185V65ZM34.0301 44.1H44.1707V62.1H34.0301V44.1Z" fill="#83B3D3"/>
<path d="M74.3916 39.3L76.5 37.2L66.5602 27.3V0H52.6044V13.6L38.9498 0L1.5 37.2L3.60843 39.3L11.4398 31.5V69.1H7.42369V72H71.5803V69.1H66.4598V31.5L74.3916 39.3ZM63.5482 69.1H14.3514V28.5L38.9498 4.1L63.5482 28.5V69.1ZM63.5482 24.4L55.6165 16.5V2.9H63.5482V24.4Z" fill="#83B3D3"/>
<path d="M31.3193 27.1C31.3193 31.4 34.8333 34.8 39.0502 34.8C43.3675 34.8 46.8815 31.3 46.8815 27.1C46.8815 22.8 43.3675 19.4 39.0502 19.4C34.8333 19.4 31.3193 22.8 31.3193 27.1ZM39.1506 22.1C41.8614 22.1 44.1707 24.3 44.1707 27C44.1707 29.7 41.9618 31.9 39.1506 31.9C36.4398 31.9 34.1305 29.7 34.1305 27C34.1305 24.3 36.3394 22.1 39.1506 22.1Z" fill="#83B3D3"/>
<path d="M21.4799 41.2H18.4679V45.1H21.4799V41.2Z" fill="#83B3D3"/>
<path d="M27.4036 41.2H24.3916V45.1H27.4036V41.2Z" fill="#83B3D3"/>
<path d="M21.4799 47.2H18.4679V51.1H21.4799V47.2Z" fill="#83B3D3"/>
<path d="M27.4036 47.2H24.3916V51.1H27.4036V47.2Z" fill="#83B3D3"/>
<path d="M53.508 41.2H50.496V45.1H53.508V41.2Z" fill="#83B3D3"/>
<path d="M59.4317 41.2H56.4197V45.1H59.4317V41.2Z" fill="#83B3D3"/>
<path d="M53.508 47.2H50.496V51.1H53.508V47.2Z" fill="#83B3D3"/>
<path d="M59.4317 47.2H56.4197V51.1H59.4317V47.2Z" fill="#83B3D3"/>
</symbol><symbol id="arrow-down" viewBox="0 0 12 9">
<path d="M6.67495 7.7123L11.775 2.4123C12.075 2.1123 12.075 1.5123 11.775 1.2123C11.475 0.912305 10.875 0.912305 10.575 1.2123L6.07495 5.9123L1.57495 1.2123C1.27495 0.912305 0.674951 0.912305 0.374951 1.2123C0.174951 1.3123 0.0749512 1.6123 0.0749512 1.8123C0.0749512 2.0123 0.174951 2.2123 0.374951 2.4123L5.47495 7.7123C5.77495 8.1123 6.37495 8.1123 6.67495 7.7123Z" fill="black"/>
</symbol><symbol id="arrow-right" viewBox="0 0 8 11">
<path d="M6.91526 4.96875L2.16526 0.71875C1.91526 0.46875 1.41526 0.46875 1.04026 0.71875C0.665263 0.96875 0.790263 1.46875 1.04026 1.71875L5.16526 5.46875L1.16526 9.21875C0.915263 9.46875 0.915263 9.96875 1.16526 10.2188C1.16526 10.3438 1.54026 10.4687 1.66526 10.4687C1.79026 10.4687 2.04026 10.3438 2.16526 10.2188L6.91526 5.96875C7.29026 5.71875 7.29026 5.21875 6.91526 4.96875Z" fill="white"/>
</symbol><symbol id="breadcrumb" viewBox="0 0 8 11">
<path d="M6.91526 4.96875L2.16526 0.71875C1.91526 0.46875 1.41526 0.46875 1.04026 0.71875C0.665263 0.96875 0.790263 1.46875 1.04026 1.71875L5.16526 5.46875L1.16526 9.21875C0.915263 9.46875 0.915263 9.96875 1.16526 10.2188C1.16526 10.3438 1.54026 10.4688 1.66526 10.4688C1.79026 10.4688 2.04026 10.3438 2.16526 10.2188L6.91526 5.96875C7.29026 5.71875 7.29026 5.21875 6.91526 4.96875Z" fill="white"/>
</symbol><symbol id="close" viewBox="0 0 21 21">
<path d="M17.4905 4.78288L16.1982 3.49057L10.4905 9.19826L4.78279 3.49057L3.49048 4.78288L9.19817 10.4906L3.49048 16.1983L4.78279 17.4906L10.4905 11.7829L16.1982 17.4906L17.4905 16.1983L11.7828 10.4906L17.4905 4.78288Z" fill="black"/>
</symbol><symbol id="date" viewBox="0 0 20 20">
<g opacity="0.3">
<path d="M7.75 12C8.05 12 8.25 11.8 8.25 11.5C8.25 11.2 8.05 11 7.75 11C7.45 11 7.25 11.2 7.25 11.5C7.25 11.8 7.45 12 7.75 12Z" fill="black"/>
<path d="M17 4H15V2H14V4H6V2H5V4H3C2.4 4 2 4.4 2 5V16C2 16.5 2.4 17 3 17H17C17.5 17 18 16.5 18 16V5C18 4.4 17.5 4 17 4ZM17 16H3V9H17V16ZM3 8V5H5V7H6V5H14V7H15V5H17V8H3Z" fill="black"/>
<path d="M10 12C10.3 12 10.5 11.8 10.5 11.5C10.5 11.2 10.3 11 10 11C9.7 11 9.5 11.2 9.5 11.5C9.5 11.8 9.7 12 10 12Z" fill="black"/>
<path d="M12.25 12C12.55 12 12.75 11.8 12.75 11.5C12.75 11.2 12.55 11 12.25 11C11.95 11 11.75 11.2 11.75 11.5C11.75 11.8 11.95 12 12.25 12Z" fill="black"/>
<path d="M7.75 13C7.45 13 7.25 13.2 7.25 13.5C7.25 13.8 7.45 14 7.75 14C8.05 14 8.25 13.8 8.25 13.5C8.25 13.2 8.05 13 7.75 13Z" fill="black"/>
<path d="M5.5 12C5.8 12 6 11.8 6 11.5C6 11.2 5.8 11 5.5 11C5.2 11 5 11.2 5 11.5C5 11.8 5.2 12 5.5 12Z" fill="black"/>
<path d="M5.5 13C5.2 13 5 13.2 5 13.5C5 13.8 5.2 14 5.5 14C5.8 14 6 13.8 6 13.5C6 13.2 5.8 13 5.5 13Z" fill="black"/>
<path d="M10 13C9.7 13 9.5 13.2 9.5 13.5C9.5 13.8 9.7 14 10 14C10.3 14 10.5 13.8 10.5 13.5C10.5 13.2 10.3 13 10 13Z" fill="black"/>
<path d="M12.25 13C11.95 13 11.75 13.2 11.75 13.5C11.75 13.8 11.95 14 12.25 14C12.55 14 12.75 13.8 12.75 13.5C12.75 13.2 12.55 13 12.25 13Z" fill="black"/>
<path d="M14.5 12C14.8 12 15 11.8 15 11.5C15 11.2 14.8 11 14.5 11C14.2 11 14 11.2 14 11.5C14 11.8 14.2 12 14.5 12Z" fill="black"/>
<path d="M14.5 13C14.2 13 14 13.2 14 13.5C14 13.8 14.2 14 14.5 14C14.8 14 15 13.8 15 13.5C15 13.2 14.8 13 14.5 13Z" fill="black"/>
</g>
</symbol><symbol id="food" viewBox="0 0 76 72">
<path d="M71.5757 47.7H5.6103C3.30452 47.7 1.5 49.6 1.5 52V55.5C1.5 57.9 3.40477 59.8 5.6103 59.8H6.51257V60.9C6.51257 66.4 10.8234 71 16.1367 71H60.8488C66.1621 71 70.4729 66.5 70.4729 60.9V59.8H71.3752C73.681 59.8 75.4855 57.9 75.4855 55.5V52C75.686 49.7 73.7812 47.7 71.5757 47.7ZM67.6659 60.9C67.6659 64.8 64.6583 67.9 60.949 67.9H16.1367C12.4274 67.9 9.41985 64.7 9.41985 60.9V59.8H67.6659V60.9ZM72.7787 55.5C72.7787 56.2 72.1772 56.8 71.5757 56.8H5.51005C4.80829 56.8 4.30704 56.2 4.30704 55.5V52C4.30704 51.3 4.90855 50.7 5.51005 50.7H71.4754C72.1772 50.7 72.6784 51.3 72.6784 52C72.7787 52 72.7787 55.5 72.7787 55.5Z" fill="#83B3D3"/>
<path d="M17.1392 39.4L22.5528 43.5L27.8661 39.4L33.1794 43.5L38.4927 39.4L43.9063 43.5L49.2196 39.4L54.5329 43.5L59.9465 39.4L65.2598 43.5L71.4754 38.8L69.7711 36.3L65.2598 39.7L59.9465 35.6L54.5329 39.7L49.2196 35.6L43.9063 39.7L38.4927 35.6L33.1794 39.7L27.8661 35.6L22.5528 39.7L17.1392 35.6L11.8259 39.7L7.31458 36.3L5.6103 38.8L11.8259 43.5L17.1392 39.4Z" fill="#83B3D3"/>
<path d="M9.52011 32.5H70.4729C70.4729 31.9 70.5732 31.3 70.5732 30.6C70.5732 30.2 70.5732 29.8 70.5732 29.4C69.8714 13.7 55.8362 1 38.593 1C21.2495 1 7.21432 13.7 6.51257 29.5C6.51257 29.9 6.51257 30.3 6.51257 30.7C6.51257 31.3 6.50815 31.9 6.6084 32.5H9.52011ZM38.593 4C54.2322 4 67.0644 15.3 67.6659 29.5H9.52011C10.1216 15.4 22.9538 4 38.593 4Z" fill="#83B3D3"/>
<path d="M38.593 18.3C39.645 18.3 40.4978 17.4046 40.4978 16.3C40.4978 15.1954 39.645 14.3 38.593 14.3C37.541 14.3 36.6882 15.1954 36.6882 16.3C36.6882 17.4046 37.541 18.3 38.593 18.3Z" fill="#83B3D3"/>
<path d="M30.7734 13.2C31.8254 13.2 32.6782 12.3046 32.6782 11.2C32.6782 10.0954 31.8254 9.2 30.7734 9.2C29.7214 9.2 28.8686 10.0954 28.8686 11.2C28.8686 12.3046 29.7214 13.2 30.7734 13.2Z" fill="#83B3D3"/>
<path d="M46.3123 13.2C47.3643 13.2 48.2171 12.3046 48.2171 11.2C48.2171 10.0954 47.3643 9.2 46.3123 9.2C45.2604 9.2 44.4076 10.0954 44.4076 11.2C44.4076 12.3046 45.2604 13.2 46.3123 13.2Z" fill="#83B3D3"/>
</symbol><symbol id="footer-logo" viewBox="0 0 115 34">
<path d="M0 13.2564V15.8564H2.5V13.2564H0Z" fill="black"/>
<path d="M11.6 4.85645C10 4.85645 8.8 5.55645 8 6.55645H7.9V0.356445H5.9V15.8564H7.9V10.5564C7.9 8.45645 9.2 6.95645 11.2 6.95645C13 6.95645 14.1 8.35645 14.1 10.1564V15.8564H16.1V9.75644C16.2 6.75644 14.3 4.85645 11.6 4.85645Z" fill="black"/>
<path d="M26.6 5.15645H21.8V1.45645H19.8V5.25645H17.9V7.25645H19.8V13.2564C19.8 14.9564 20.8 15.9564 22.5 15.9564H26.6V13.9564H22.9C22.2 13.9564 21.8 13.5564 21.8 12.8564V7.15645H26.6V5.15645Z" fill="black"/>
<path d="M41.1 4.95645C39.5 4.95645 38.2 5.75644 37.6 7.05645H37.5C36.9 5.85645 35.7 4.95645 34.1 4.95645C32.7 4.95645 31.6 5.75645 31 6.75645H30.9V5.15645H29V15.7564H31V10.3564C31 8.35645 32 6.85645 33.6 6.85645C35.1 6.85645 36 7.85645 36 9.45645V15.7564H38V10.1564C38 7.75645 39.4 6.85645 40.6 6.85645C42.1 6.85645 43 7.85645 43 9.45645V15.7564H45V9.25644C45.1 6.75644 43.6 4.95645 41.1 4.95645Z" fill="black"/>
<path d="M47.8 13.0564C47.8 14.7564 48.8 15.7564 50.6 15.7564H52.6V13.7564H50.9C50.2 13.7564 49.8 13.3564 49.8 12.6564V0.356445H47.8V13.0564Z" fill="black"/>
<path d="M28.9 20.0564C28 18.9564 26.7 18.2564 25 18.2564C21.9 18.2564 19.6 20.5564 19.6 23.8564C19.6 27.1564 21.9 29.4564 25 29.4564C26.8 29.4564 28 28.6564 28.8 27.5564H28.9V29.1564H30.9V18.5564H28.9V20.0564ZM25.3 27.4564C23.1 27.4564 21.7 25.8564 21.7 23.8564C21.7 21.8564 23.1 20.2564 25.3 20.2564C27.5 20.2564 28.9 21.8564 28.9 23.8564C28.9 25.7564 27.5 27.4564 25.3 27.4564Z" fill="black"/>
<path d="M44.2 22.3564C43.7 19.9564 41.6 18.2564 38.8 18.2564C35.4 18.2564 33.2 20.7564 33.2 23.8564C33.2 26.9564 35.4 29.4564 38.8 29.4564C41.6 29.4564 43.7 27.6564 44.2 25.2564H42.1C41.7 26.5564 40.4 27.5564 38.8 27.5564C36.6 27.5564 35.2 25.9564 35.2 23.9564C35.2 21.9564 36.6 20.3564 38.8 20.3564C40.4 20.3564 41.6 21.3564 42.1 22.5564H44.2V22.3564Z" fill="black"/>
<path d="M55.1 20.0564C54.2 18.9564 52.9 18.2564 51.2 18.2564C48.1 18.2564 45.8 20.5564 45.8 23.8564C45.8 27.1564 48.1 29.4564 51.2 29.4564C53 29.4564 54.2 28.6564 55 27.5564H55.1V29.1564H57.1V18.5564H55.1V20.0564ZM51.5 27.4564C49.3 27.4564 47.9 25.8564 47.9 23.8564C47.9 21.8564 49.3 20.2564 51.5 20.2564C53.7 20.2564 55.1 21.8564 55.1 23.8564C55.1 25.7564 53.6 27.4564 51.5 27.4564Z" fill="black"/>
<path d="M68.7 20.1564C67.8 19.0564 66.5 18.2564 64.8 18.2564C61.7 18.2564 59.4 20.5564 59.4 23.8564C59.4 27.1564 61.6 29.4564 64.8 29.4564C66.5 29.4564 67.8 28.6564 68.6 27.6564H68.7V29.1564H70.7V13.7564H68.7V20.1564ZM65.1 27.4564C62.9 27.4564 61.5 25.8564 61.5 23.8564C61.5 21.8564 62.9 20.2564 65.1 20.2564C67.3 20.2564 68.7 21.8564 68.7 23.8564C68.6 25.8564 67.2 27.4564 65.1 27.4564Z" fill="black"/>
<path d="M78.3 18.2564C75 18.2564 72.8 20.7564 72.8 23.8564C72.8 26.8564 74.9 29.4564 78.3 29.4564C80.8 29.4564 82.8 28.1564 83.5 25.8564H81.4C80.9 26.8564 79.8 27.4564 78.4 27.4564C76.5 27.4564 75.1 26.1564 75 24.5564H83.8C84 20.9564 81.8 18.2564 78.3 18.2564ZM78.3 20.1564C80 20.1564 81.3 21.1564 81.6 22.7564H75.1C75.4 21.2564 76.6 20.1564 78.3 20.1564Z" fill="black"/>
<path d="M98.2 18.2564C96.6 18.2564 95.3 19.0564 94.6 20.2564H94.5C93.9 19.0564 92.7 18.2564 91.1 18.2564C89.7 18.2564 88.6 18.9564 88 20.0564V18.5564H86.1V29.1564H88.1V23.7564C88.1 21.7564 89.1 20.3564 90.7 20.2564C92.2 20.2564 93.1 21.2564 93.1 22.8564V29.1564H95.1V23.5564C95.1 21.1564 96.5 20.2564 97.7 20.2564C99.2 20.2564 100.1 21.2564 100.1 22.8564V29.1564H102.1V22.6564C102.2 20.0564 100.7 18.2564 98.2 18.2564Z" fill="black"/>
<path d="M109.4 27.3564L105.8 18.4564H103.6L108.4 30.0564C108.1 30.9564 107.7 31.2564 106.7 31.2564H104.2V33.2564H106.7C108.5 33.2564 109.5 32.4564 110.2 30.6564L114.9 18.4564H112.8L109.4 27.3564Z" fill="black"/>
</symbol><symbol id="heart" viewBox="0 0 20 20">
<path d="M9.9 19C9.6 19 9.3 18.9 9.1 18.6C3.7 12.5 2.4 11.1 2.1 10.7C1.4 9.8 1 8.6 1 7.4C1 4.4 3.4 2 6.5 2C7.8 2 9 2.5 10 3.3C11 2.5 12.3 2 13.5 2C16.5 2 19 4.4 19 7.4C19 8.7 18.5 9.9 17.7 10.8L10.7 18.7C10.5 18.9 10.3 19 9.9 19ZM3.9 9.5C4.2 9.9 7.4 13.5 10 16.4L16.2 9.4C16.7 8.9 16.9 8.2 16.9 7.4C16.9 5.6 15.4 4.1 13.6 4.1C12.6 4.1 11.6 4.6 10.9 5.4C10.6 5.7 10.3 5.8 10 5.8C9.7 5.8 9.4 5.6 9.2 5.4C8.5 4.6 7.5 4.1 6.5 4.1C4.7 4.1 3.2 5.6 3.2 7.4C3.1 8.3 3.5 9 3.9 9.5C3.8 9.5 3.8 9.5 3.9 9.5Z" fill="black"/>
</symbol><symbol id="home" viewBox="0 0 13 15">
<path d="M6.5 0.5L0.5 6.30006V12.5001H12.5V6.30006L6.5 0.5ZM11.5 11.5001H1.5V6.70005L6.5 1.9L11.5 6.70005V11.5001Z" fill="white"/>
<path d="M4.5 10.5001H5.5V8.00005H7.5V10.5001H8.5V7.00005H4.5V10.5001Z" fill="white"/>
</symbol><symbol id="info" viewBox="0 0 2 12">
<path fill-rule="evenodd" clip-rule="evenodd" d="M0 0H2V2H0V0ZM2 12H0V3H2V12Z" fill="white"/>
</symbol><symbol id="search" viewBox="0 0 20 20">
<path d="M19.5 18.0083L15.8 14.3287C16.8 13.0359 17.5 11.3453 17.5 9.4558C17.5 5.08011 13.9 1.5 9.5 1.5C5.1 1.5 1.5 5.17956 1.5 9.55525C1.5 13.9309 5.1 17.511 9.5 17.511C11.3 17.511 13 16.9144 14.4 15.8204L18.1 19.5L19.5 18.0083ZM9.5 15.5221C6.2 15.5221 3.5 12.837 3.5 9.55525C3.5 6.27348 6.2 3.5884 9.5 3.5884C12.8 3.5884 15.5 6.27348 15.5 9.55525C15.5 12.837 12.8 15.5221 9.5 15.5221Z" fill="black"/>
</symbol><symbol id="souvenirs" viewBox="0 0 76 76">
<path d="M67.6 22.4625H67.5H42.8C56.6 15.5576 57.7 11.1546 57.2 8.75288C56 4.75007 51.5 1.74797 47.2 3.34909C41.6 5.45056 40.1 13.7564 38.6 19.7606C36.6 13.6563 34.8 5.95091 30.4 2.04818C29.1 0.947407 27.3 -0.253434 24.6 0.0467764C20.6 0.447057 14.8 5.45056 17.1 11.0545C19.4 16.4583 26.8 19.8607 31.7 22.5626H9.7H9.4C7.8 22.5626 6.5 23.8635 6.5 25.4646V36.7725C6.5 38.3736 7.8 39.6745 9.4 39.6745H9.7V72.9979V75.3996V76H67.5V75.4996V72.9979V39.5745H67.6C69.2 39.5745 70.5 38.2736 70.5 36.6724V25.3645C70.5 23.7634 69.2 22.4625 67.6 22.4625ZM48.9 5.85084C51 5.55063 53.9 7.15176 54.2 9.05309C54.6 11.8551 50.8 14.3568 49.1 15.4576C46.6 17.1588 44.2 18.0594 41.8 19.5604C42.7 15.8579 44.3 6.55133 48.9 5.85084ZM26 15.8579C23.8 14.3568 19.5 11.4548 19.6 8.05239C19.7 4.44986 25.3 1.44776 28.4 4.14965C32.3 7.55203 34.1 15.2574 35.5 20.7613C32.3 19.2602 29.2 17.9593 26 15.8579ZM32 72.9979H12.6V39.5745H32V72.9979ZM32 36.4723H9.5V25.4646H32V36.4723ZM42.2 36.4723V39.4744V72.9979H35V39.5745V36.5724V25.5647H42.2V36.4723ZM64.5 72.9979H45.1V39.5745H64.5V72.9979ZM67.4 36.4723H45.1V25.4646H67.4V36.4723Z" fill="#83B3D3"/>
</symbol><symbol id="star" viewBox="0 0 18 17">
<g clip-path="url(#clip0_47805_160)">
<path d="M9 0L11.1 6.5H18L12.4 10.5L14.6 17L9 13L3.4 17L5.6 10.5L0 6.5H6.9L9 0Z" fill="#83B3D3"/>
</g>

</symbol><symbol id="telegram" viewBox="0 0 18 17">
<path d="M16.785 0.955705L0.840489 7.1042C-0.247661 7.54126 -0.241365 8.14828 0.640845 8.41897L4.73445 9.69597L14.2058 3.72014C14.6537 3.44766 15.0629 3.59424 14.7265 3.89281L7.05283 10.8183H7.05103L7.05283 10.8192L6.77045 15.0387C7.18413 15.0387 7.36669 14.8489 7.59871 14.625L9.58705 12.6915L13.7229 15.7464C14.4855 16.1664 15.0332 15.9506 15.2229 15.0405L17.9379 2.2453C18.2158 1.13107 17.5126 0.626562 16.785 0.955705Z" fill="#83B3D3"/>
</symbol><symbol id="tick" viewBox="0 0 13 11">
<path d="M11 0.5L4.5 7.9L1.1 4L0 5.2L4.5 10.4L12.2 1.8L11 0.5Z" fill="#3F5E72"/>
</symbol><symbol id="view-full" viewBox="0 0 16 14">
<path d="M16 12H0V14H16V12Z" fill="black"/>
<path d="M14 2V8H2V2H14ZM16 0H0V10H16V0Z" fill="black"/>
</symbol><symbol id="view-row" viewBox="0 0 16 14">
<g clip-path="url(#clip0_47805_94)">
<path d="M2 0H0V2H2V0Z" fill="black"/>
<path d="M16 0H4V2H16V0Z" fill="black"/>
<path d="M2 4H0V6H2V4Z" fill="black"/>
<path d="M16 4H4V6H16V4Z" fill="black"/>
<path d="M2 8H0V10H2V8Z" fill="black"/>
<path d="M16 8H4V10H16V8Z" fill="black"/>
<path d="M2 12H0V14H2V12Z" fill="black"/>
<path d="M16 12H4V14H16V12Z" fill="black"/>
</g>

</symbol><symbol id="view-tile" viewBox="0 0 16 14">
<g clip-path="url(#clip0_47805_56)">
<path d="M4 0H0V6H4V0Z" fill="black"/>
<path d="M16 0H12V6H16V0Z" fill="black"/>
<path d="M10 0H6V6H10V0Z" fill="black"/>
<path d="M4 8H0V14H4V8Z" fill="black"/>
<path d="M16 8H12V14H16V8Z" fill="black"/>
<path d="M10 8H6V14H10V8Z" fill="black"/>
</g>

</symbol><symbol id="vk" viewBox="0 0 25 15">
<path fill-rule="evenodd" clip-rule="evenodd" d="M24.1164 1.80445C24.2824 1.25845 24.1164 0.856445 23.3214 0.856445H20.6964C20.0284 0.856445 19.7204 1.20345 19.5534 1.58645C19.5534 1.58645 18.2184 4.78245 16.3274 6.85845C15.7154 7.46045 15.4374 7.65145 15.1034 7.65145C14.9364 7.65145 14.6854 7.46045 14.6854 6.91345V1.80445C14.6854 1.14845 14.5014 0.856445 13.9454 0.856445H9.81738C9.40038 0.856445 9.14938 1.16045 9.14938 1.44945C9.14938 2.07045 10.0954 2.21445 10.1924 3.96245V7.76045C10.1924 8.59345 10.0394 8.74444 9.70538 8.74444C8.81538 8.74444 6.65038 5.53345 5.36538 1.85945C5.11638 1.14445 4.86438 0.856445 4.19338 0.856445H1.56638C0.816382 0.856445 0.666382 1.20345 0.666382 1.58645C0.666382 2.26845 1.55638 5.65645 4.81138 10.1374C6.98138 13.1974 10.0364 14.8564 12.8194 14.8564C14.4884 14.8564 14.6944 14.4884 14.6944 13.8534V11.5404C14.6944 10.8034 14.8524 10.6564 15.3814 10.6564C15.7714 10.6564 16.4384 10.8484 17.9964 12.3234C19.7764 14.0724 20.0694 14.8564 21.0714 14.8564H23.6964C24.4464 14.8564 24.8224 14.4884 24.6064 13.7604C24.3684 13.0364 23.5184 11.9854 22.3914 10.7384C21.7794 10.0284 20.8614 9.26345 20.5824 8.88045C20.1934 8.38945 20.3044 8.17044 20.5824 7.73345C20.5824 7.73345 23.7824 3.30745 24.1154 1.80445H24.1164Z" fill="#83B3D3"/>
</symbol><symbol id="youtube" viewBox="0 0 23 18">
<path d="M18.9402 0.356445H3.50738C1.64668 0.356445 0.333252 1.9502 0.333252 3.75645V13.8502C0.333252 15.7627 1.64668 17.3564 3.50738 17.3564H19.1591C20.8009 17.3564 22.3333 15.7627 22.3333 13.9564V3.75645C22.1143 1.9502 20.8009 0.356445 18.9402 0.356445ZM7.99494 12.8939V4.81894L15.3283 8.85645L7.99494 12.8939Z" fill="#83B3D3"/>
</symbol></symbol><symbol id="accommodation" viewBox="0 0 77 72">
<path d="M31.1185 65H47.1827V41.2H31.1185V65ZM34.0301 44.1H44.1707V62.1H34.0301V44.1Z" fill="#83B3D3"/>
<path d="M74.3916 39.3L76.5 37.2L66.5602 27.3V0H52.6044V13.6L38.9498 0L1.5 37.2L3.60843 39.3L11.4398 31.5V69.1H7.42369V72H71.5803V69.1H66.4598V31.5L74.3916 39.3ZM63.5482 69.1H14.3514V28.5L38.9498 4.1L63.5482 28.5V69.1ZM63.5482 24.4L55.6165 16.5V2.9H63.5482V24.4Z" fill="#83B3D3"/>
<path d="M31.3193 27.1C31.3193 31.4 34.8333 34.8 39.0502 34.8C43.3675 34.8 46.8815 31.3 46.8815 27.1C46.8815 22.8 43.3675 19.4 39.0502 19.4C34.8333 19.4 31.3193 22.8 31.3193 27.1ZM39.1506 22.1C41.8614 22.1 44.1707 24.3 44.1707 27C44.1707 29.7 41.9618 31.9 39.1506 31.9C36.4398 31.9 34.1305 29.7 34.1305 27C34.1305 24.3 36.3394 22.1 39.1506 22.1Z" fill="#83B3D3"/>
<path d="M21.4799 41.2H18.4679V45.1H21.4799V41.2Z" fill="#83B3D3"/>
<path d="M27.4036 41.2H24.3916V45.1H27.4036V41.2Z" fill="#83B3D3"/>
<path d="M21.4799 47.2H18.4679V51.1H21.4799V47.2Z" fill="#83B3D3"/>
<path d="M27.4036 47.2H24.3916V51.1H27.4036V47.2Z" fill="#83B3D3"/>
<path d="M53.508 41.2H50.496V45.1H53.508V41.2Z" fill="#83B3D3"/>
<path d="M59.4317 41.2H56.4197V45.1H59.4317V41.2Z" fill="#83B3D3"/>
<path d="M53.508 47.2H50.496V51.1H53.508V47.2Z" fill="#83B3D3"/>
<path d="M59.4317 47.2H56.4197V51.1H59.4317V47.2Z" fill="#83B3D3"/>
</symbol><symbol id="arrow-down" viewBox="0 0 12 9">
<path d="M6.67495 7.7123L11.775 2.4123C12.075 2.1123 12.075 1.5123 11.775 1.2123C11.475 0.912305 10.875 0.912305 10.575 1.2123L6.07495 5.9123L1.57495 1.2123C1.27495 0.912305 0.674951 0.912305 0.374951 1.2123C0.174951 1.3123 0.0749512 1.6123 0.0749512 1.8123C0.0749512 2.0123 0.174951 2.2123 0.374951 2.4123L5.47495 7.7123C5.77495 8.1123 6.37495 8.1123 6.67495 7.7123Z" fill="black"/>
</symbol><symbol id="arrow-right" viewBox="0 0 8 11">
<path d="M6.91526 4.96875L2.16526 0.71875C1.91526 0.46875 1.41526 0.46875 1.04026 0.71875C0.665263 0.96875 0.790263 1.46875 1.04026 1.71875L5.16526 5.46875L1.16526 9.21875C0.915263 9.46875 0.915263 9.96875 1.16526 10.2188C1.16526 10.3438 1.54026 10.4687 1.66526 10.4687C1.79026 10.4687 2.04026 10.3438 2.16526 10.2188L6.91526 5.96875C7.29026 5.71875 7.29026 5.21875 6.91526 4.96875Z" fill="white"/>
</symbol><symbol id="breadcrumb" viewBox="0 0 8 11">
<path d="M6.91526 4.96875L2.16526 0.71875C1.91526 0.46875 1.41526 0.46875 1.04026 0.71875C0.665263 0.96875 0.790263 1.46875 1.04026 1.71875L5.16526 5.46875L1.16526 9.21875C0.915263 9.46875 0.915263 9.96875 1.16526 10.2188C1.16526 10.3438 1.54026 10.4688 1.66526 10.4688C1.79026 10.4688 2.04026 10.3438 2.16526 10.2188L6.91526 5.96875C7.29026 5.71875 7.29026 5.21875 6.91526 4.96875Z" fill="white"/>
</symbol><symbol id="close" viewBox="0 0 21 21">
<path d="M17.4905 4.78288L16.1982 3.49057L10.4905 9.19826L4.78279 3.49057L3.49048 4.78288L9.19817 10.4906L3.49048 16.1983L4.78279 17.4906L10.4905 11.7829L16.1982 17.4906L17.4905 16.1983L11.7828 10.4906L17.4905 4.78288Z" fill="black"/>
</symbol><symbol id="date" viewBox="0 0 20 20">
<g opacity="0.3">
<path d="M7.75 12C8.05 12 8.25 11.8 8.25 11.5C8.25 11.2 8.05 11 7.75 11C7.45 11 7.25 11.2 7.25 11.5C7.25 11.8 7.45 12 7.75 12Z" fill="black"/>
<path d="M17 4H15V2H14V4H6V2H5V4H3C2.4 4 2 4.4 2 5V16C2 16.5 2.4 17 3 17H17C17.5 17 18 16.5 18 16V5C18 4.4 17.5 4 17 4ZM17 16H3V9H17V16ZM3 8V5H5V7H6V5H14V7H15V5H17V8H3Z" fill="black"/>
<path d="M10 12C10.3 12 10.5 11.8 10.5 11.5C10.5 11.2 10.3 11 10 11C9.7 11 9.5 11.2 9.5 11.5C9.5 11.8 9.7 12 10 12Z" fill="black"/>
<path d="M12.25 12C12.55 12 12.75 11.8 12.75 11.5C12.75 11.2 12.55 11 12.25 11C11.95 11 11.75 11.2 11.75 11.5C11.75 11.8 11.95 12 12.25 12Z" fill="black"/>
<path d="M7.75 13C7.45 13 7.25 13.2 7.25 13.5C7.25 13.8 7.45 14 7.75 14C8.05 14 8.25 13.8 8.25 13.5C8.25 13.2 8.05 13 7.75 13Z" fill="black"/>
<path d="M5.5 12C5.8 12 6 11.8 6 11.5C6 11.2 5.8 11 5.5 11C5.2 11 5 11.2 5 11.5C5 11.8 5.2 12 5.5 12Z" fill="black"/>
<path d="M5.5 13C5.2 13 5 13.2 5 13.5C5 13.8 5.2 14 5.5 14C5.8 14 6 13.8 6 13.5C6 13.2 5.8 13 5.5 13Z" fill="black"/>
<path d="M10 13C9.7 13 9.5 13.2 9.5 13.5C9.5 13.8 9.7 14 10 14C10.3 14 10.5 13.8 10.5 13.5C10.5 13.2 10.3 13 10 13Z" fill="black"/>
<path d="M12.25 13C11.95 13 11.75 13.2 11.75 13.5C11.75 13.8 11.95 14 12.25 14C12.55 14 12.75 13.8 12.75 13.5C12.75 13.2 12.55 13 12.25 13Z" fill="black"/>
<path d="M14.5 12C14.8 12 15 11.8 15 11.5C15 11.2 14.8 11 14.5 11C14.2 11 14 11.2 14 11.5C14 11.8 14.2 12 14.5 12Z" fill="black"/>
<path d="M14.5 13C14.2 13 14 13.2 14 13.5C14 13.8 14.2 14 14.5 14C14.8 14 15 13.8 15 13.5C15 13.2 14.8 13 14.5 13Z" fill="black"/>
</g>
</symbol><symbol id="food" viewBox="0 0 76 72">
<path d="M71.5757 47.7H5.6103C3.30452 47.7 1.5 49.6 1.5 52V55.5C1.5 57.9 3.40477 59.8 5.6103 59.8H6.51257V60.9C6.51257 66.4 10.8234 71 16.1367 71H60.8488C66.1621 71 70.4729 66.5 70.4729 60.9V59.8H71.3752C73.681 59.8 75.4855 57.9 75.4855 55.5V52C75.686 49.7 73.7812 47.7 71.5757 47.7ZM67.6659 60.9C67.6659 64.8 64.6583 67.9 60.949 67.9H16.1367C12.4274 67.9 9.41985 64.7 9.41985 60.9V59.8H67.6659V60.9ZM72.7787 55.5C72.7787 56.2 72.1772 56.8 71.5757 56.8H5.51005C4.80829 56.8 4.30704 56.2 4.30704 55.5V52C4.30704 51.3 4.90855 50.7 5.51005 50.7H71.4754C72.1772 50.7 72.6784 51.3 72.6784 52C72.7787 52 72.7787 55.5 72.7787 55.5Z" fill="#83B3D3"/>
<path d="M17.1392 39.4L22.5528 43.5L27.8661 39.4L33.1794 43.5L38.4927 39.4L43.9063 43.5L49.2196 39.4L54.5329 43.5L59.9465 39.4L65.2598 43.5L71.4754 38.8L69.7711 36.3L65.2598 39.7L59.9465 35.6L54.5329 39.7L49.2196 35.6L43.9063 39.7L38.4927 35.6L33.1794 39.7L27.8661 35.6L22.5528 39.7L17.1392 35.6L11.8259 39.7L7.31458 36.3L5.6103 38.8L11.8259 43.5L17.1392 39.4Z" fill="#83B3D3"/>
<path d="M9.52011 32.5H70.4729C70.4729 31.9 70.5732 31.3 70.5732 30.6C70.5732 30.2 70.5732 29.8 70.5732 29.4C69.8714 13.7 55.8362 1 38.593 1C21.2495 1 7.21432 13.7 6.51257 29.5C6.51257 29.9 6.51257 30.3 6.51257 30.7C6.51257 31.3 6.50815 31.9 6.6084 32.5H9.52011ZM38.593 4C54.2322 4 67.0644 15.3 67.6659 29.5H9.52011C10.1216 15.4 22.9538 4 38.593 4Z" fill="#83B3D3"/>
<path d="M38.593 18.3C39.645 18.3 40.4978 17.4046 40.4978 16.3C40.4978 15.1954 39.645 14.3 38.593 14.3C37.541 14.3 36.6882 15.1954 36.6882 16.3C36.6882 17.4046 37.541 18.3 38.593 18.3Z" fill="#83B3D3"/>
<path d="M30.7734 13.2C31.8254 13.2 32.6782 12.3046 32.6782 11.2C32.6782 10.0954 31.8254 9.2 30.7734 9.2C29.7214 9.2 28.8686 10.0954 28.8686 11.2C28.8686 12.3046 29.7214 13.2 30.7734 13.2Z" fill="#83B3D3"/>
<path d="M46.3123 13.2C47.3643 13.2 48.2171 12.3046 48.2171 11.2C48.2171 10.0954 47.3643 9.2 46.3123 9.2C45.2604 9.2 44.4076 10.0954 44.4076 11.2C44.4076 12.3046 45.2604 13.2 46.3123 13.2Z" fill="#83B3D3"/>
</symbol><symbol id="footer-logo" viewBox="0 0 115 34">
<path d="M0 13.2564V15.8564H2.5V13.2564H0Z" fill="black"/>
<path d="M11.6 4.85645C10 4.85645 8.8 5.55645 8 6.55645H7.9V0.356445H5.9V15.8564H7.9V10.5564C7.9 8.45645 9.2 6.95645 11.2 6.95645C13 6.95645 14.1 8.35645 14.1 10.1564V15.8564H16.1V9.75644C16.2 6.75644 14.3 4.85645 11.6 4.85645Z" fill="black"/>
<path d="M26.6 5.15645H21.8V1.45645H19.8V5.25645H17.9V7.25645H19.8V13.2564C19.8 14.9564 20.8 15.9564 22.5 15.9564H26.6V13.9564H22.9C22.2 13.9564 21.8 13.5564 21.8 12.8564V7.15645H26.6V5.15645Z" fill="black"/>
<path d="M41.1 4.95645C39.5 4.95645 38.2 5.75644 37.6 7.05645H37.5C36.9 5.85645 35.7 4.95645 34.1 4.95645C32.7 4.95645 31.6 5.75645 31 6.75645H30.9V5.15645H29V15.7564H31V10.3564C31 8.35645 32 6.85645 33.6 6.85645C35.1 6.85645 36 7.85645 36 9.45645V15.7564H38V10.1564C38 7.75645 39.4 6.85645 40.6 6.85645C42.1 6.85645 43 7.85645 43 9.45645V15.7564H45V9.25644C45.1 6.75644 43.6 4.95645 41.1 4.95645Z" fill="black"/>
<path d="M47.8 13.0564C47.8 14.7564 48.8 15.7564 50.6 15.7564H52.6V13.7564H50.9C50.2 13.7564 49.8 13.3564 49.8 12.6564V0.356445H47.8V13.0564Z" fill="black"/>
<path d="M28.9 20.0564C28 18.9564 26.7 18.2564 25 18.2564C21.9 18.2564 19.6 20.5564 19.6 23.8564C19.6 27.1564 21.9 29.4564 25 29.4564C26.8 29.4564 28 28.6564 28.8 27.5564H28.9V29.1564H30.9V18.5564H28.9V20.0564ZM25.3 27.4564C23.1 27.4564 21.7 25.8564 21.7 23.8564C21.7 21.8564 23.1 20.2564 25.3 20.2564C27.5 20.2564 28.9 21.8564 28.9 23.8564C28.9 25.7564 27.5 27.4564 25.3 27.4564Z" fill="black"/>
<path d="M44.2 22.3564C43.7 19.9564 41.6 18.2564 38.8 18.2564C35.4 18.2564 33.2 20.7564 33.2 23.8564C33.2 26.9564 35.4 29.4564 38.8 29.4564C41.6 29.4564 43.7 27.6564 44.2 25.2564H42.1C41.7 26.5564 40.4 27.5564 38.8 27.5564C36.6 27.5564 35.2 25.9564 35.2 23.9564C35.2 21.9564 36.6 20.3564 38.8 20.3564C40.4 20.3564 41.6 21.3564 42.1 22.5564H44.2V22.3564Z" fill="black"/>
<path d="M55.1 20.0564C54.2 18.9564 52.9 18.2564 51.2 18.2564C48.1 18.2564 45.8 20.5564 45.8 23.8564C45.8 27.1564 48.1 29.4564 51.2 29.4564C53 29.4564 54.2 28.6564 55 27.5564H55.1V29.1564H57.1V18.5564H55.1V20.0564ZM51.5 27.4564C49.3 27.4564 47.9 25.8564 47.9 23.8564C47.9 21.8564 49.3 20.2564 51.5 20.2564C53.7 20.2564 55.1 21.8564 55.1 23.8564C55.1 25.7564 53.6 27.4564 51.5 27.4564Z" fill="black"/>
<path d="M68.7 20.1564C67.8 19.0564 66.5 18.2564 64.8 18.2564C61.7 18.2564 59.4 20.5564 59.4 23.8564C59.4 27.1564 61.6 29.4564 64.8 29.4564C66.5 29.4564 67.8 28.6564 68.6 27.6564H68.7V29.1564H70.7V13.7564H68.7V20.1564ZM65.1 27.4564C62.9 27.4564 61.5 25.8564 61.5 23.8564C61.5 21.8564 62.9 20.2564 65.1 20.2564C67.3 20.2564 68.7 21.8564 68.7 23.8564C68.6 25.8564 67.2 27.4564 65.1 27.4564Z" fill="black"/>
<path d="M78.3 18.2564C75 18.2564 72.8 20.7564 72.8 23.8564C72.8 26.8564 74.9 29.4564 78.3 29.4564C80.8 29.4564 82.8 28.1564 83.5 25.8564H81.4C80.9 26.8564 79.8 27.4564 78.4 27.4564C76.5 27.4564 75.1 26.1564 75 24.5564H83.8C84 20.9564 81.8 18.2564 78.3 18.2564ZM78.3 20.1564C80 20.1564 81.3 21.1564 81.6 22.7564H75.1C75.4 21.2564 76.6 20.1564 78.3 20.1564Z" fill="black"/>
<path d="M98.2 18.2564C96.6 18.2564 95.3 19.0564 94.6 20.2564H94.5C93.9 19.0564 92.7 18.2564 91.1 18.2564C89.7 18.2564 88.6 18.9564 88 20.0564V18.5564H86.1V29.1564H88.1V23.7564C88.1 21.7564 89.1 20.3564 90.7 20.2564C92.2 20.2564 93.1 21.2564 93.1 22.8564V29.1564H95.1V23.5564C95.1 21.1564 96.5 20.2564 97.7 20.2564C99.2 20.2564 100.1 21.2564 100.1 22.8564V29.1564H102.1V22.6564C102.2 20.0564 100.7 18.2564 98.2 18.2564Z" fill="black"/>
<path d="M109.4 27.3564L105.8 18.4564H103.6L108.4 30.0564C108.1 30.9564 107.7 31.2564 106.7 31.2564H104.2V33.2564H106.7C108.5 33.2564 109.5 32.4564 110.2 30.6564L114.9 18.4564H112.8L109.4 27.3564Z" fill="black"/>
</symbol><symbol id="heart" viewBox="0 0 20 20">
<path d="M9.9 19C9.6 19 9.3 18.9 9.1 18.6C3.7 12.5 2.4 11.1 2.1 10.7C1.4 9.8 1 8.6 1 7.4C1 4.4 3.4 2 6.5 2C7.8 2 9 2.5 10 3.3C11 2.5 12.3 2 13.5 2C16.5 2 19 4.4 19 7.4C19 8.7 18.5 9.9 17.7 10.8L10.7 18.7C10.5 18.9 10.3 19 9.9 19ZM3.9 9.5C4.2 9.9 7.4 13.5 10 16.4L16.2 9.4C16.7 8.9 16.9 8.2 16.9 7.4C16.9 5.6 15.4 4.1 13.6 4.1C12.6 4.1 11.6 4.6 10.9 5.4C10.6 5.7 10.3 5.8 10 5.8C9.7 5.8 9.4 5.6 9.2 5.4C8.5 4.6 7.5 4.1 6.5 4.1C4.7 4.1 3.2 5.6 3.2 7.4C3.1 8.3 3.5 9 3.9 9.5C3.8 9.5 3.8 9.5 3.9 9.5Z" fill="black"/>
</symbol><symbol id="home" viewBox="0 0 13 15">
<path d="M6.5 0.5L0.5 6.30006V12.5001H12.5V6.30006L6.5 0.5ZM11.5 11.5001H1.5V6.70005L6.5 1.9L11.5 6.70005V11.5001Z" fill="white"/>
<path d="M4.5 10.5001H5.5V8.00005H7.5V10.5001H8.5V7.00005H4.5V10.5001Z" fill="white"/>
</symbol><symbol id="info" viewBox="0 0 2 12">
<path fill-rule="evenodd" clip-rule="evenodd" d="M0 0H2V2H0V0ZM2 12H0V3H2V12Z" fill="white"/>
</symbol><symbol id="search" viewBox="0 0 20 20">
<path d="M19.5 18.0083L15.8 14.3287C16.8 13.0359 17.5 11.3453 17.5 9.4558C17.5 5.08011 13.9 1.5 9.5 1.5C5.1 1.5 1.5 5.17956 1.5 9.55525C1.5 13.9309 5.1 17.511 9.5 17.511C11.3 17.511 13 16.9144 14.4 15.8204L18.1 19.5L19.5 18.0083ZM9.5 15.5221C6.2 15.5221 3.5 12.837 3.5 9.55525C3.5 6.27348 6.2 3.5884 9.5 3.5884C12.8 3.5884 15.5 6.27348 15.5 9.55525C15.5 12.837 12.8 15.5221 9.5 15.5221Z" fill="black"/>
</symbol><symbol id="sedona-logo" viewBox="0 0 115 34">
<g clip-path="url(#clip0_59_2)">
<rect width="115" height="34" fill="white"/>
<path d="M25.2188 13.6855C24.8724 12.0176 24.2344 10.7233 23.3047 9.80273C22.3841 8.88216 21.2767 8.42188 19.9824 8.42188C18.7155 8.42188 17.7311 8.72266 17.0293 9.32422C16.3366 9.92578 15.9902 10.7279 15.9902 11.7305C15.9902 12.2865 16.0404 12.7467 16.1406 13.1113C16.2409 13.4759 16.446 13.8314 16.7559 14.1777C17.0658 14.515 17.5169 14.8158 18.1094 15.0801C18.7018 15.3353 19.4766 15.5814 20.4336 15.8184C20.9531 15.946 21.4043 16.0645 21.7871 16.1738C22.179 16.2832 22.6074 16.4336 23.0723 16.625C23.5462 16.8164 23.9518 17.0215 24.2891 17.2402C24.6354 17.459 24.9772 17.7324 25.3145 18.0605C25.6608 18.3796 25.9388 18.735 26.1484 19.127C26.3672 19.5189 26.5404 19.9837 26.668 20.5215C26.8047 21.0501 26.873 21.6289 26.873 22.2578C26.873 23.0964 26.7181 23.8711 26.4082 24.582C26.0983 25.2839 25.6927 25.8763 25.1914 26.3594C24.6901 26.8424 24.1113 27.2526 23.4551 27.5898C22.7988 27.9271 22.1335 28.1732 21.459 28.3281C20.7845 28.4831 20.1146 28.5605 19.4492 28.5605C17.4258 28.5605 15.2702 28.0365 12.9824 26.9883C13.028 26.0039 13.0508 25.3978 13.0508 25.1699C13.0508 23.6842 12.9277 22.2031 12.6816 20.7266C12.7819 20.6628 12.8822 20.6309 12.9824 20.6309C13.11 20.6309 13.224 20.6628 13.3242 20.7266C13.5156 21.9023 13.8301 22.9414 14.2676 23.8438C14.7142 24.7461 15.2246 25.4616 15.7988 25.9902C16.373 26.5098 16.9655 26.9017 17.5762 27.166C18.196 27.4212 18.8203 27.5488 19.4492 27.5488C20.8802 27.5488 21.9785 27.1797 22.7441 26.4414C23.5189 25.694 23.9062 24.7096 23.9062 23.4883C23.9062 22.2578 23.6191 21.3327 23.0449 20.7129C22.4798 20.084 21.3952 19.5736 19.791 19.1816C17.7858 18.6803 16.2181 17.9421 15.0879 16.9668C13.9668 15.9824 13.4062 14.6836 13.4062 13.0703C13.4062 12.2227 13.543 11.4661 13.8164 10.8008C14.099 10.1263 14.459 9.58854 14.8965 9.1875C15.3431 8.77734 15.8626 8.4401 16.4551 8.17578C17.0475 7.90234 17.6309 7.71549 18.2051 7.61523C18.7884 7.50586 19.3809 7.45117 19.9824 7.45117C21.7871 7.45117 23.6647 7.87044 25.6152 8.70898C25.5605 9.24674 25.5332 9.80729 25.5332 10.3906C25.5332 11.7578 25.6426 12.8561 25.8613 13.6855C25.7428 13.7311 25.6426 13.7539 25.5605 13.7539C25.4694 13.7539 25.3555 13.7311 25.2188 13.6855ZM40.3125 20.7539H32.8613C32.8249 21.3008 32.8066 21.7839 32.8066 22.2031C32.834 23.5612 33.2305 24.6504 33.9961 25.4707C34.7617 26.2819 35.7871 26.6875 37.0723 26.6875C37.4186 26.6875 37.7422 26.651 38.043 26.5781C38.3438 26.4961 38.5898 26.4049 38.7812 26.3047C38.9818 26.2044 39.1868 26.0586 39.3965 25.8672C39.6061 25.6758 39.7565 25.5254 39.8477 25.416C39.9479 25.2975 40.0801 25.1243 40.2441 24.8965C40.4082 24.6595 40.5176 24.5091 40.5723 24.4453C40.791 24.4909 40.9688 24.5911 41.1055 24.7461C40.6497 25.9674 39.9434 26.8835 38.9863 27.4941C38.0293 28.0957 36.9902 28.3965 35.8691 28.3965C35.3132 28.3965 34.7708 28.3236 34.2422 28.1777C33.7227 28.041 33.2168 27.8132 32.7246 27.4941C32.2324 27.1751 31.804 26.7832 31.4395 26.3184C31.0749 25.8444 30.7832 25.2565 30.5645 24.5547C30.3457 23.8438 30.2363 23.0599 30.2363 22.2031C30.2363 20.2799 30.8242 18.694 32 17.4453C33.1758 16.1966 34.6204 15.5723 36.334 15.5723C37.0905 15.5723 37.7467 15.6816 38.3027 15.9004C38.8678 16.11 39.3053 16.3971 39.6152 16.7617C39.9342 17.1263 40.1667 17.5273 40.3125 17.9648C40.4674 18.3932 40.5449 18.8535 40.5449 19.3457C40.5449 19.8014 40.4674 20.2708 40.3125 20.7539ZM36.0059 16.4609C35.377 16.4609 34.7799 16.7389 34.2148 17.2949C33.6589 17.8509 33.2578 18.694 33.0117 19.8242H37.9336C38.0247 19.4779 38.0703 19.1771 38.0703 18.9219C38.0703 18.2109 37.9062 17.623 37.5781 17.1582C37.25 16.6934 36.7259 16.4609 36.0059 16.4609ZM50.2383 8.33984C51.9609 8.17578 53.5013 7.80208 54.8594 7.21875C55.0964 7.31901 55.2513 7.44206 55.3242 7.58789C55.3242 17.9147 55.3652 24.0944 55.4473 26.127C55.4564 26.3639 55.5247 26.569 55.6523 26.7422C55.7891 26.9062 55.9805 27.0339 56.2266 27.125C56.4727 27.2161 56.6777 27.2845 56.8418 27.3301C57.0059 27.3665 57.2201 27.403 57.4844 27.4395C57.5208 27.5853 57.5391 27.6992 57.5391 27.7812C57.5391 27.8359 57.5208 27.9362 57.4844 28.082C57.1654 28.0638 56.8372 28.0456 56.5 28.0273C56.1719 28.0091 55.9121 27.9954 55.7207 27.9863C55.5293 27.9772 55.3516 27.9727 55.1875 27.9727C55.0508 27.9727 54.8958 27.9772 54.7227 27.9863C54.5495 27.9954 54.3125 28.0091 54.0117 28.0273C53.7109 28.0456 53.4147 28.0638 53.123 28.082C53.0775 28.0638 53.0365 28.041 53 28.0137C52.9727 27.9954 52.9499 27.9818 52.9316 27.9727C52.9225 27.9544 52.9089 27.9316 52.8906 27.9043C52.8724 27.8678 52.8587 27.8451 52.8496 27.8359C52.8405 27.8268 52.8268 27.7995 52.8086 27.7539C52.7995 27.6992 52.7904 27.6673 52.7812 27.6582C52.8177 27.4395 52.8359 26.9473 52.8359 26.1816C51.332 27.6582 49.9421 28.3965 48.666 28.3965C47.2624 28.3965 46.1185 27.8678 45.2344 26.8105C44.3503 25.7533 43.9082 24.3132 43.9082 22.4902C43.9082 21.8613 43.9811 21.2324 44.127 20.6035C44.2728 19.9746 44.5143 19.3548 44.8516 18.7441C45.1888 18.1335 45.6035 17.5957 46.0957 17.1309C46.5879 16.666 47.2122 16.2923 47.9688 16.0098C48.7253 15.7181 49.5638 15.5723 50.4844 15.5723C51.168 15.5723 51.9701 15.7181 52.8906 16.0098C52.8724 14.278 52.8633 12.1224 52.8633 9.54297C52.3438 9.24219 51.4688 9.05534 50.2383 8.98242C50.2018 8.83659 50.1836 8.72721 50.1836 8.6543C50.1836 8.59049 50.2018 8.48568 50.2383 8.33984ZM49.9785 26.6055C50.89 26.6055 51.8516 26.1178 52.8633 25.1426C52.8815 24.2493 52.8906 22.5586 52.8906 20.0703V18.0879C52.2617 17.0033 51.3001 16.4609 50.0059 16.4609C49.7324 16.4609 49.459 16.502 49.1855 16.584C48.9121 16.666 48.6204 16.8301 48.3105 17.0762C48.0007 17.3223 47.7272 17.6367 47.4902 18.0195C47.2624 18.4023 47.071 18.9355 46.916 19.6191C46.7611 20.2936 46.6836 21.0729 46.6836 21.957C46.6836 23.306 46.9616 24.418 47.5176 25.293C48.0827 26.168 48.903 26.6055 49.9785 26.6055ZM66.084 15.5723C66.9863 15.5723 67.7975 15.7318 68.5176 16.0508C69.2467 16.3698 69.8665 16.8118 70.377 17.377C70.8874 17.9421 71.2793 18.6211 71.5527 19.4141C71.8262 20.1979 71.9629 21.0547 71.9629 21.9844C71.9629 23.8802 71.4297 25.4206 70.3633 26.6055C69.306 27.7995 67.8796 28.3965 66.084 28.3965C65.1908 28.3965 64.3796 28.2415 63.6504 27.9316C62.9303 27.6126 62.3151 27.1706 61.8047 26.6055C61.2943 26.0312 60.8978 25.3522 60.6152 24.5684C60.3418 23.7845 60.2051 22.9232 60.2051 21.9844C60.2051 21.0547 60.3418 20.1979 60.6152 19.4141C60.8887 18.6211 61.276 17.9421 61.7773 17.377C62.2878 16.8118 62.9076 16.3698 63.6367 16.0508C64.3659 15.7318 65.1816 15.5723 66.084 15.5723ZM66.084 16.4609C65.1543 16.4609 64.4115 16.9121 63.8555 17.8145C63.3086 18.7168 63.0352 20.1068 63.0352 21.9844C63.0352 23.862 63.3086 25.252 63.8555 26.1543C64.4115 27.0475 65.1543 27.4941 66.084 27.4941C67.0137 27.4941 67.752 27.043 68.2988 26.1406C68.8548 25.2383 69.1328 23.8529 69.1328 21.9844C69.1328 21.0456 69.0599 20.2298 68.9141 19.5371C68.7682 18.8444 68.5632 18.2702 68.2988 17.8145C68.0345 17.3587 67.7155 17.0215 67.3418 16.8027C66.9681 16.5749 66.5488 16.4609 66.084 16.4609ZM81.9297 27.4395C81.9844 27.5488 82.0117 27.6628 82.0117 27.7812C82.0117 27.8724 81.9844 27.9727 81.9297 28.082C80.7266 28.0273 79.5599 28 78.4297 28C77.3177 28 76.1602 28.0273 74.957 28.082C74.9206 27.9362 74.9023 27.8359 74.9023 27.7812C74.9023 27.7357 74.9206 27.6217 74.957 27.4395C75.2578 27.403 75.5039 27.3665 75.6953 27.3301C75.8867 27.2845 76.1237 27.2161 76.4062 27.125C76.6888 27.0339 76.903 26.9062 77.0488 26.7422C77.1947 26.569 77.2721 26.3639 77.2812 26.127C77.3177 25.2246 77.3359 24.1309 77.3359 22.8457C77.3359 22.4173 77.3314 21.6882 77.3223 20.6582C77.3132 19.6283 77.3086 18.7259 77.3086 17.9512C76.7891 17.6322 75.9141 17.4453 74.6836 17.3906C74.6471 17.2448 74.6289 17.1309 74.6289 17.0488C74.6289 16.9941 74.6471 16.8939 74.6836 16.748C76.4518 16.5658 77.9922 16.1921 79.3047 15.627C79.5326 15.7181 79.6921 15.8366 79.7832 15.9824V18.1426C80.6673 17.3678 81.515 16.748 82.3262 16.2832C83.1374 15.8092 83.9577 15.5723 84.7871 15.5723C85.8262 15.5723 86.5599 15.8639 86.9883 16.4473C87.4258 17.0306 87.6536 17.9421 87.6719 19.1816L87.8086 26.127C87.8177 26.3639 87.8861 26.569 88.0137 26.7422C88.1504 26.9062 88.3418 27.0339 88.5879 27.125C88.8431 27.2161 89.0527 27.2845 89.2168 27.3301C89.3809 27.3665 89.5951 27.403 89.8594 27.4395C89.8958 27.6217 89.9141 27.7448 89.9141 27.8086C89.9141 27.8815 89.8958 27.9727 89.8594 28.082C88.6836 28.0273 87.599 28 86.6055 28C85.6393 28 84.5684 28.0273 83.3926 28.082C83.3561 27.9362 83.3379 27.8268 83.3379 27.7539C83.3379 27.6901 83.3561 27.5853 83.3926 27.4395C83.6296 27.403 83.8255 27.3665 83.9805 27.3301C84.1445 27.2845 84.3268 27.2161 84.5273 27.125C84.737 27.0339 84.8919 26.9062 84.9922 26.7422C85.1016 26.569 85.1562 26.3639 85.1562 26.127L85.1836 19.6328C85.1836 17.9831 84.6868 17.1582 83.6934 17.1582C82.7637 17.1582 81.4603 17.778 79.7832 19.0176C79.7832 21.6699 79.8197 24.0397 79.8926 26.127C79.9017 26.3639 79.9701 26.569 80.0977 26.7422C80.2344 26.9062 80.4258 27.0339 80.6719 27.125C80.918 27.2161 81.123 27.2845 81.2871 27.3301C81.4512 27.3665 81.6654 27.403 81.9297 27.4395ZM92.9492 19.0176C92.9492 18.015 93.4049 17.1901 94.3164 16.543C95.237 15.8958 96.3216 15.5723 97.5703 15.5723C99.1016 15.5723 100.177 15.8776 100.797 16.4883C101.426 17.099 101.74 18.1289 101.74 19.5781V25.252C101.74 25.7624 101.927 26.0176 102.301 26.0176C102.602 26.0176 102.984 25.653 103.449 24.9238C103.777 24.9512 104.001 25.097 104.119 25.3613C104.055 25.4525 103.946 25.6165 103.791 25.8535C103.636 26.0905 103.522 26.2591 103.449 26.3594C103.376 26.4596 103.262 26.6146 103.107 26.8242C102.952 27.0247 102.825 27.1751 102.725 27.2754C102.633 27.3757 102.506 27.4941 102.342 27.6309C102.187 27.7676 102.041 27.8724 101.904 27.9453C101.777 28.0091 101.626 28.0638 101.453 28.1094C101.28 28.1641 101.107 28.1914 100.934 28.1914C100.478 28.1914 100.1 28.0273 99.7988 27.6992C99.5072 27.3711 99.334 26.8652 99.2793 26.1816C99.2702 26.1908 99.1289 26.3229 98.8555 26.5781C98.582 26.8333 98.3906 27.0065 98.2812 27.0977C98.181 27.1797 97.985 27.3301 97.6934 27.5488C97.4108 27.7585 97.1693 27.9089 96.9688 28C96.7682 28.0911 96.5176 28.1777 96.2168 28.2598C95.916 28.3509 95.6198 28.3965 95.3281 28.3965C94.8633 28.3965 94.4486 28.3327 94.084 28.2051C93.7285 28.0775 93.4505 27.9225 93.25 27.7402C93.0495 27.5579 92.8854 27.3483 92.7578 27.1113C92.6302 26.8652 92.5436 26.6419 92.498 26.4414C92.4616 26.2409 92.4434 26.0404 92.4434 25.8398C92.4434 25.2292 92.5436 24.7142 92.7441 24.2949C92.9538 23.8757 93.3366 23.4837 93.8926 23.1191C94.4577 22.7546 95.1504 22.431 95.9707 22.1484C96.791 21.8659 97.8939 21.5469 99.2793 21.1914V19.291C99.2793 18.3704 99.0742 17.6823 98.6641 17.2266C98.263 16.7708 97.7207 16.543 97.0371 16.543C96.4264 16.543 95.9115 16.666 95.4922 16.9121C95.082 17.1491 94.8314 17.4271 94.7402 17.7461C95.6335 17.8828 96.0801 18.3704 96.0801 19.209C96.0801 19.5918 95.9434 19.929 95.6699 20.2207C95.3965 20.5124 95.0137 20.6582 94.5215 20.6582C94.1113 20.6582 93.7467 20.5169 93.4277 20.2344C93.1087 19.9427 92.9492 19.5371 92.9492 19.0176ZM99.2793 24.9238V22.0664C98.4408 22.2578 97.748 22.4674 97.2012 22.6953C96.6543 22.9141 96.235 23.1556 95.9434 23.4199C95.6608 23.6842 95.4648 23.9577 95.3555 24.2402C95.2461 24.5137 95.1914 24.8327 95.1914 25.1973C95.1914 25.653 95.3236 26.013 95.5879 26.2773C95.8613 26.5326 96.194 26.6602 96.5859 26.6602C97.4974 26.6602 98.3952 26.0814 99.2793 24.9238Z"/>
</g>

</symbol><symbol id="souvenirs" viewBox="0 0 76 76">
<path d="M67.6 22.4625H67.5H42.8C56.6 15.5576 57.7 11.1546 57.2 8.75288C56 4.75007 51.5 1.74797 47.2 3.34909C41.6 5.45056 40.1 13.7564 38.6 19.7606C36.6 13.6563 34.8 5.95091 30.4 2.04818C29.1 0.947407 27.3 -0.253434 24.6 0.0467764C20.6 0.447057 14.8 5.45056 17.1 11.0545C19.4 16.4583 26.8 19.8607 31.7 22.5626H9.7H9.4C7.8 22.5626 6.5 23.8635 6.5 25.4646V36.7725C6.5 38.3736 7.8 39.6745 9.4 39.6745H9.7V72.9979V75.3996V76H67.5V75.4996V72.9979V39.5745H67.6C69.2 39.5745 70.5 38.2736 70.5 36.6724V25.3645C70.5 23.7634 69.2 22.4625 67.6 22.4625ZM48.9 5.85084C51 5.55063 53.9 7.15176 54.2 9.05309C54.6 11.8551 50.8 14.3568 49.1 15.4576C46.6 17.1588 44.2 18.0594 41.8 19.5604C42.7 15.8579 44.3 6.55133 48.9 5.85084ZM26 15.8579C23.8 14.3568 19.5 11.4548 19.6 8.05239C19.7 4.44986 25.3 1.44776 28.4 4.14965C32.3 7.55203 34.1 15.2574 35.5 20.7613C32.3 19.2602 29.2 17.9593 26 15.8579ZM32 72.9979H12.6V39.5745H32V72.9979ZM32 36.4723H9.5V25.4646H32V36.4723ZM42.2 36.4723V39.4744V72.9979H35V39.5745V36.5724V25.5647H42.2V36.4723ZM64.5 72.9979H45.1V39.5745H64.5V72.9979ZM67.4 36.4723H45.1V25.4646H67.4V36.4723Z" fill="#83B3D3"/>
</symbol><symbol id="star" viewBox="0 0 18 17">
<g clip-path="url(#clip0_47805_160)">
<path d="M9 0L11.1 6.5H18L12.4 10.5L14.6 17L9 13L3.4 17L5.6 10.5L0 6.5H6.9L9 0Z" fill="#83B3D3"/>
</g>

</symbol><symbol id="telegram" viewBox="0 0 18 17">
	<path d="M16.785 0.955705L0.840489 7.1042C-0.247661 7.54126 -0.241365 8.14828 0.640845 8.41897L4.73445 9.69597L14.2058 3.72014C14.6537 3.44766 15.0629 3.59424 14.7265 3.89281L7.05283 10.8183H7.05103L7.05283 10.8192L6.77045 15.0387C7.18413 15.0387 7.36669 14.8489 7.59871 14.625L9.58705 12.6915L13.7229 15.7464C14.4855 16.1664 15.0332 15.9506 15.2229 15.0405L17.9379 2.2453C18.2158 1.13107 17.5126 0.626562 16.785 0.955705Z"/>
</symbol><symbol id="tick" viewBox="0 0 13 11">
<path d="M11 0.5L4.5 7.9L1.1 4L0 5.2L4.5 10.4L12.2 1.8L11 0.5Z" fill="#3F5E72"/>
</symbol><symbol id="view-full" viewBox="0 0 16 14">
<path d="M16 12H0V14H16V12Z" fill="black"/>
<path d="M14 2V8H2V2H14ZM16 0H0V10H16V0Z" fill="black"/>
</symbol><symbol id="view-row" viewBox="0 0 16 14">
<g clip-path="url(#clip0_47805_94)">
<path d="M2 0H0V2H2V0Z" fill="black"/>
<path d="M16 0H4V2H16V0Z" fill="black"/>
<path d="M2 4H0V6H2V4Z" fill="black"/>
<path d="M16 4H4V6H16V4Z" fill="black"/>
<path d="M2 8H0V10H2V8Z" fill="black"/>
<path d="M16 8H4V10H16V8Z" fill="black"/>
<path d="M2 12H0V14H2V12Z" fill="black"/>
<path d="M16 12H4V14H16V12Z" fill="black"/>
</g>

</symbol><symbol id="view-tile" viewBox="0 0 16 14">
<g clip-path="url(#clip0_47805_56)">
<path d="M4 0H0V6H4V0Z" fill="black"/>
<path d="M16 0H12V6H16V0Z" fill="black"/>
<path d="M10 0H6V6H10V0Z" fill="black"/>
<path d="M4 8H0V14H4V8Z" fill="black"/>
<path d="M16 8H12V14H16V8Z" fill="black"/>
<path d="M10 8H6V14H10V8Z" fill="black"/>
</g>

</symbol><symbol id="vk" viewBox="0 0 25 15">
	<path fill-rule="evenodd" clip-rule="evenodd" d="M24.1164 1.80445C24.2824 1.25845 24.1164 0.856445 23.3214 0.856445H20.6964C20.0284 0.856445 19.7204 1.20345 19.5534 1.58645C19.5534 1.58645 18.2184 4.78245 16.3274 6.85845C15.7154 7.46045 15.4374 7.65145 15.1034 7.65145C14.9364 7.65145 14.6854 7.46045 14.6854 6.91345V1.80445C14.6854 1.14845 14.5014 0.856445 13.9454 0.856445H9.81738C9.40038 0.856445 9.14938 1.16045 9.14938 1.44945C9.14938 2.07045 10.0954 2.21445 10.1924 3.96245V7.76045C10.1924 8.59345 10.0394 8.74444 9.70538 8.74444C8.81538 8.74444 6.65038 5.53345 5.36538 1.85945C5.11638 1.14445 4.86438 0.856445 4.19338 0.856445H1.56638C0.816382 0.856445 0.666382 1.20345 0.666382 1.58645C0.666382 2.26845 1.55638 5.65645 4.81138 10.1374C6.98138 13.1974 10.0364 14.8564 12.8194 14.8564C14.4884 14.8564 14.6944 14.4884 14.6944 13.8534V11.5404C14.6944 10.8034 14.8524 10.6564 15.3814 10.6564C15.7714 10.6564 16.4384 10.8484 17.9964 12.3234C19.7764 14.0724 20.0694 14.8564 21.0714 14.8564H23.6964C24.4464 14.8564 24.8224 14.4884 24.6064 13.7604C24.3684 13.0364 23.5184 11.9854 22.3914 10.7384C21.7794 10.0284 20.8614 9.26345 20.5824 8.88045C20.1934 8.38945 20.3044 8.17044 20.5824 7.73345C20.5824 7.73345 23.7824 3.30745 24.1154 1.80445H24.1164Z"/>
</symbol><symbol id="youtube" viewBox="0 0 23 18">
	<path d="M18.9402 0.356445H3.50738C1.64668 0.356445 0.333252 1.9502 0.333252 3.75645V13.8502C0.333252 15.7627 1.64668 17.3564 3.50738 17.3564H19.1591C20.8009 17.3564 22.3333 15.7627 22.3333 13.9564V3.75645C22.1143 1.9502 20.8009 0.356445 18.9402 0.356445ZM7.99494 12.8939V4.81894L15.3283 8.85645L7.99494 12.8939Z"/>
</symbol></svg>