<svg xmlns="http://www.w3.org/2000/svg" xmlns:xlink="http://www.w3.org/1999/xlink"><defs>
<clipPath id="clip0_47805_160">
<rect width="18" height="17" fill="white"/>
</clipPath>

<clipPath id="clip0_47805_94">
<rect width="16" height="14" fill="white"/>
</clipPath>

<clipPath id="clip0_47805_56">
<rect width="16" height="14" fill="white"/>
</clipPath>
</defs><symbol id="accommodation" viewBox="0 0 77 72">
<path d="M31.1185 65H47.1827V41.2H31.1185V65ZM34.0301 44.1H44.1707V62.1H34.0301V44.1Z" fill="#83B3D3"/>
<path d="M74.3916 39.3L76.5 37.2L66.5602 27.3V0H52.6044V13.6L38.9498 0L1.5 37.2L3.60843 39.3L11.4398 31.5V69.1H7.42369V72H71.5803V69.1H66.4598V31.5L74.3916 39.3ZM63.5482 69.1H14.3514V28.5L38.9498 4.1L63.5482 28.5V69.1ZM63.5482 24.4L55.6165 16.5V2.9H63.5482V24.4Z" fill="#83B3D3"/>
<path d="M31.3193 27.1C31.3193 31.4 34.8333 34.8 39.0502 34.8C43.3675 34.8 46.8815 31.3 46.8815 27.1C46.8815 22.8 43.3675 19.4 39.0502 19.4C34.8333 19.4 31.3193 22.8 31.3193 27.1ZM39.1506 22.1C41.8614 22.1 44.1707 24.3 44.1707 27C44.1707 29.7 41.9618 31.9 39.1506 31.9C36.4398 31.9 34.1305 29.7 34.1305 27C34.1305 24.3 36.3394 22.1 39.1506 22.1Z" fill="#83B3D3"/>
<path d="M21.4799 41.2H18.4679V45.1H21.4799V41.2Z" fill="#83B3D3"/>
<path d="M27.4036 41.2H24.3916V45.1H27.4036V41.2Z" fill="#83B3D3"/>
<path d="M21.4799 47.2H18.4679V51.1H21.4799V47.2Z" fill="#83B3D3"/>
<path d="M27.4036 47.2H24.3916V51.1H27.4036V47.2Z" fill="#83B3D3"/>
<path d="M53.508 41.2H50.496V45.1H53.508V41.2Z" fill="#83B3D3"/>
<path d="M59.4317 41.2H56.4197V45.1H59.4317V41.2Z" fill="#83B3D3"/>
<path d="M53.508 47.2H50.496V51.1H53.508V47.2Z" fill="#83B3D3"/>
<path d="M59.4317 47.2H56.4197V51.1H59.4317V47.2Z" fill="#83B3D3"/>
</symbol><symbol id="arrow-down" viewBox="0 0 12 9">
<path d="M6.67495 7.7123L11.775 2.4123C12.075 2.1123 12.075 1.5123 11.775 1.2123C11.475 0.912305 10.875 0.912305 10.575 1.2123L6.07495 5.9123L1.57495 1.2123C1.27495 0.912305 0.674951 0.912305 0.374951 1.2123C0.174951 1.3123 0.0749512 1.6123 0.0749512 1.8123C0.0749512 2.0123 0.174951 2.2123 0.374951 2.4123L5.47495 7.7123C5.77495 8.1123 6.37495 8.1123 6.67495 7.7123Z" fill="black"/>
</symbol><symbol id="arrow-right" viewBox="0 0 8 11">
<path d="M6.91526 4.96875L2.16526 0.71875C1.91526 0.46875 1.41526 0.46875 1.04026 0.71875C0.665263 0.96875 0.790263 1.46875 1.04026 1.71875L5.16526 5.46875L1.16526 9.21875C0.915263 9.46875 0.915263 9.96875 1.16526 10.2188C1.16526 10.3438 1.54026 10.4687 1.66526 10.4687C1.79026 10.4687 2.04026 10.3438 2.16526 10.2188L6.91526 5.96875C7.29026 5.71875 7.29026 5.21875 6.91526 4.96875Z" fill="white"/>
</symbol><symbol id="breadcrumb" viewBox="0 0 8 11">
<path d="M6.91526 4.96875L2.16526 0.71875C1.91526 0.46875 1.41526 0.46875 1.04026 0.71875C0.665263 0.96875 0.790263 1.46875 1.04026 1.71875L5.16526 5.46875L1.16526 9.21875C0.915263 9.46875 0.915263 9.96875 1.16526 10.2188C1.16526 10.3438 1.54026 10.4688 1.66526 10.4688C1.79026 10.4688 2.04026 10.3438 2.16526 10.2188L6.91526 5.96875C7.29026 5.71875 7.29026 5.21875 6.91526 4.96875Z" fill="white"/>
</symbol><symbol id="close" viewBox="0 0 21 21">
<path d="M17.4905 4.78288L16.1982 3.49057L10.4905 9.19826L4.78279 3.49057L3.49048 4.78288L9.19817 10.4906L3.49048 16.1983L4.78279 17.4906L10.4905 11.7829L16.1982 17.4906L17.4905 16.1983L11.7828 10.4906L17.4905 4.78288Z" fill="black"/>
</symbol><symbol id="date" viewBox="0 0 20 20">
<g opacity="0.3">
<path d="M7.75 12C8.05 12 8.25 11.8 8.25 11.5C8.25 11.2 8.05 11 7.75 11C7.45 11 7.25 11.2 7.25 11.5C7.25 11.8 7.45 12 7.75 12Z" fill="black"/>
<path d="M17 4H15V2H14V4H6V2H5V4H3C2.4 4 2 4.4 2 5V16C2 16.5 2.4 17 3 17H17C17.5 17 18 16.5 18 16V5C18 4.4 17.5 4 17 4ZM17 16H3V9H17V16ZM3 8V5H5V7H6V5H14V7H15V5H17V8H3Z" fill="black"/>
<path d="M10 12C10.3 12 10.5 11.8 10.5 11.5C10.5 11.2 10.3 11 10 11C9.7 11 9.5 11.2 9.5 11.5C9.5 11.8 9.7 12 10 12Z" fill="black"/>
<path d="M12.25 12C12.55 12 12.75 11.8 12.75 11.5C12.75 11.2 12.55 11 12.25 11C11.95 11 11.75 11.2 11.75 11.5C11.75 11.8 11.95 12 12.25 12Z" fill="black"/>
<path d="M7.75 13C7.45 13 7.25 13.2 7.25 13.5C7.25 13.8 7.45 14 7.75 14C8.05 14 8.25 13.8 8.25 13.5C8.25 13.2 8.05 13 7.75 13Z" fill="black"/>
<path d="M5.5 12C5.8 12 6 11.8 6 11.5C6 11.2 5.8 11 5.5 11C5.2 11 5 11.2 5 11.5C5 11.8 5.2 12 5.5 12Z" fill="black"/>
<path d="M5.5 13C5.2 13 5 13.2 5 13.5C5 13.8 5.2 14 5.5 14C5.8 14 6 13.8 6 13.5C6 13.2 5.8 13 5.5 13Z" fill="black"/>
<path d="M10 13C9.7 13 9.5 13.2 9.5 13.5C9.5 13.8 9.7 14 10 14C10.3 14 10.5 13.8 10.5 13.5C10.5 13.2 10.3 13 10 13Z" fill="black"/>
<path d="M12.25 13C11.95 13 11.75 13.2 11.75 13.5C11.75 13.8 11.95 14 12.25 14C12.55 14 12.75 13.8 12.75 13.5C12.75 13.2 12.55 13 12.25 13Z" fill="black"/>
<path d="M14.5 12C14.8 12 15 11.8 15 11.5C15 11.2 14.8 11 14.5 11C14.2 11 14 11.2 14 11.5C14 11.8 14.2 12 14.5 12Z" fill="black"/>
<path d="M14.5 13C14.2 13 14 13.2 14 13.5C14 13.8 14.2 14 14.5 14C14.8 14 15 13.8 15 13.5C15 13.2 14.8 13 14.5 13Z" fill="black"/>
</g>
</symbol><symbol id="food" viewBox="0 0 76 72">
<path d="M71.5757 47.7H5.6103C3.30452 47.7 1.5 49.6 1.5 52V55.5C1.5 57.9 3.40477 59.8 5.6103 59.8H6.51257V60.9C6.51257 66.4 10.8234 71 16.1367 71H60.8488C66.1621 71 70.4729 66.5 70.4729 60.9V59.8H71.3752C73.681 59.8 75.4855 57.9 75.4855 55.5V52C75.686 49.7 73.7812 47.7 71.5757 47.7ZM67.6659 60.9C67.6659 64.8 64.6583 67.9 60.949 67.9H16.1367C12.4274 67.9 9.41985 64.7 9.41985 60.9V59.8H67.6659V60.9ZM72.7787 55.5C72.7787 56.2 72.1772 56.8 71.5757 56.8H5.51005C4.80829 56.8 4.30704 56.2 4.30704 55.5V52C4.30704 51.3 4.90855 50.7 5.51005 50.7H71.4754C72.1772 50.7 72.6784 51.3 72.6784 52C72.7787 52 72.7787 55.5 72.7787 55.5Z" fill="#83B3D3"/>
<path d="M17.1392 39.4L22.5528 43.5L27.8661 39.4L33.1794 43.5L38.4927 39.4L43.9063 43.5L49.2196 39.4L54.5329 43.5L59.9465 39.4L65.2598 43.5L71.4754 38.8L69.7711 36.3L65.2598 39.7L59.9465 35.6L54.5329 39.7L49.2196 35.6L43.9063 39.7L38.4927 35.6L33.1794 39.7L27.8661 35.6L22.5528 39.7L17.1392 35.6L11.8259 39.7L7.31458 36.3L5.6103 38.8L11.8259 43.5L17.1392 39.4Z" fill="#83B3D3"/>
<path d="M9.52011 32.5H70.4729C70.4729 31.9 70.5732 31.3 70.5732 30.6C70.5732 30.2 70.5732 29.8 70.5732 29.4C69.8714 13.7 55.8362 1 38.593 1C21.2495 1 7.21432 13.7 6.51257 29.5C6.51257 29.9 6.51257 30.3 6.51257 30.7C6.51257 31.3 6.50815 31.9 6.6084 32.5H9.52011ZM38.593 4C54.2322 4 67.0644 15.3 67.6659 29.5H9.52011C10.1216 15.4 22.9538 4 38.593 4Z" fill="#83B3D3"/>
<path d="M38.593 18.3C39.645 18.3 40.4978 17.4046 40.4978 16.3C40.4978 15.1954 39.645 14.3 38.593 14.3C37.541 14.3 36.6882 15.1954 36.6882 16.3C36.6882 17.4046 37.541 18.3 38.593 18.3Z" fill="#83B3D3"/>
<path d="M30.7734 13.2C31.8254 13.2 32.6782 12.3046 32.6782 11.2C32.6782 10.0954 31.8254 9.2 30.7734 9.2C29.7214 9.2 28.8686 10.0954 28.8686 11.2C28.8686 12.3046 29.7214 13.2 30.7734 13.2Z" fill="#83B3D3"/>
<path d="M46.3123 13.2C47.3643 13.2 48.2171 12.3046 48.2171 11.2C48.2171 10.0954 47.3643 9.2 46.3123 9.2C45.2604 9.2 44.4076 10.0954 44.4076 11.2C44.4076 12.3046 45.2604 13.2 46.3123 13.2Z" fill="#83B3D3"/>
</symbol><symbol id="footer-logo" viewBox="0 0 115 34">
<path d="M0 13.2564V15.8564H2.5V13.2564H0Z" fill="black"/>
<path d="M11.6 4.85645C10 4.85645 8.8 5.55645 8 6.55645H7.9V0.356445H5.9V15.8564H7.9V10.5564C7.9 8.45645 9.2 6.95645 11.2 6.95645C13 6.95645 14.1 8.35645 14.1 10.1564V15.8564H16.1V9.75644C16.2 6.75644 14.3 4.85645 11.6 4.85645Z" fill="black"/>
<path d="M26.6 5.15645H21.8V1.45645H19.8V5.25645H17.9V7.25645H19.8V13.2564C19.8 14.9564 20.8 15.9564 22.5 15.9564H26.6V13.9564H22.9C22.2 13.9564 21.8 13.5564 21.8 12.8564V7.15645H26.6V5.15645Z" fill="black"/>
<path d="M41.1 4.95645C39.5 4.95645 38.2 5.75644 37.6 7.05645H37.5C36.9 5.85645 35.7 4.95645 34.1 4.95645C32.7 4.95645 31.6 5.75645 31 6.75645H30.9V5.15645H29V15.7564H31V10.3564C31 8.35645 32 6.85645 33.6 6.85645C35.1 6.85645 36 7.85645 36 9.45645V15.7564H38V10.1564C38 7.75645 39.4 6.85645 40.6 6.85645C42.1 6.85645 43 7.85645 43 9.45645V15.7564H45V9.25644C45.1 6.75644 43.6 4.95645 41.1 4.95645Z" fill="black"/>
<path d="M47.8 13.0564C47.8 14.7564 48.8 15.7564 50.6 15.7564H52.6V13.7564H50.9C50.2 13.7564 49.8 13.3564 49.8 12.6564V0.356445H47.8V13.0564Z" fill="black"/>
<path d="M28.9 20.0564C28 18.9564 26.7 18.2564 25 18.2564C21.9 18.2564 19.6 20.5564 19.6 23.8564C19.6 27.1564 21.9 29.4564 25 29.4564C26.8 29.4564 28 28.6564 28.8 27.5564H28.9V29.1564H30.9V18.5564H28.9V20.0564ZM25.3 27.4564C23.1 27.4564 21.7 25.8564 21.7 23.8564C21.7 21.8564 23.1 20.2564 25.3 20.2564C27.5 20.2564 28.9 21.8564 28.9 23.8564C28.9 25.7564 27.5 27.4564 25.3 27.4564Z" fill="black"/>
<path d="M44.2 22.3564C43.7 19.9564 41.6 18.2564 38.8 18.2564C35.4 18.2564 33.2 20.7564 33.2 23.8564C33.2 26.9564 35.4 29.4564 38.8 29.4564C41.6 29.4564 43.7 27.6564 44.2 25.2564H42.1C41.7 26.5564 40.4 27.5564 38.8 27.5564C36.6 27.5564 35.2 25.9564 35.2 23.9564C35.2 21.9564 36.6 20.3564 38.8 20.3564C40.4 20.3564 41.6 21.3564 42.1 22.5564H44.2V22.3564Z" fill="black"/>
<path d="M55.1 20.0564C54.2 18.9564 52.9 18.2564 51.2 18.2564C48.1 18.2564 45.8 20.5564 45.8 23.8564C45.8 27.1564 48.1 29.4564 51.2 29.4564C53 29.4564 54.2 28.6564 55 27.5564H55.1V29.1564H57.1V18.5564H55.1V20.0564ZM51.5 27.4564C49.3 27.4564 47.9 25.8564 47.9 23.8564C47.9 21.8564 49.3 20.2564 51.5 20.2564C53.7 20.2564 55.1 21.8564 55.1 23.8564C55.1 25.7564 53.6 27.4564 51.5 27.4564Z" fill="black"/>
<path d="M68.7 20.1564C67.8 19.0564 66.5 18.2564 64.8 18.2564C61.7 18.2564 59.4 20.5564 59.4 23.8564C59.4 27.1564 61.6 29.4564 64.8 29.4564C66.5 29.4564 67.8 28.6564 68.6 27.6564H68.7V29.1564H70.7V13.7564H68.7V20.1564ZM65.1 27.4564C62.9 27.4564 61.5 25.8564 61.5 23.8564C61.5 21.8564 62.9 20.2564 65.1 20.2564C67.3 20.2564 68.7 21.8564 68.7 23.8564C68.6 25.8564 67.2 27.4564 65.1 27.4564Z" fill="black"/>
<path d="M78.3 18.2564C75 18.2564 72.8 20.7564 72.8 23.8564C72.8 26.8564 74.9 29.4564 78.3 29.4564C80.8 29.4564 82.8 28.1564 83.5 25.8564H81.4C80.9 26.8564 79.8 27.4564 78.4 27.4564C76.5 27.4564 75.1 26.1564 75 24.5564H83.8C84 20.9564 81.8 18.2564 78.3 18.2564ZM78.3 20.1564C80 20.1564 81.3 21.1564 81.6 22.7564H75.1C75.4 21.2564 76.6 20.1564 78.3 20.1564Z" fill="black"/>
<path d="M98.2 18.2564C96.6 18.2564 95.3 19.0564 94.6 20.2564H94.5C93.9 19.0564 92.7 18.2564 91.1 18.2564C89.7 18.2564 88.6 18.9564 88 20.0564V18.5564H86.1V29.1564H88.1V23.7564C88.1 21.7564 89.1 20.3564 90.7 20.2564C92.2 20.2564 93.1 21.2564 93.1 22.8564V29.1564H95.1V23.5564C95.1 21.1564 96.5 20.2564 97.7 20.2564C99.2 20.2564 100.1 21.2564 100.1 22.8564V29.1564H102.1V22.6564C102.2 20.0564 100.7 18.2564 98.2 18.2564Z" fill="black"/>
<path d="M109.4 27.3564L105.8 18.4564H103.6L108.4 30.0564C108.1 30.9564 107.7 31.2564 106.7 31.2564H104.2V33.2564H106.7C108.5 33.2564 109.5 32.4564 110.2 30.6564L114.9 18.4564H112.8L109.4 27.3564Z" fill="black"/>
</symbol><symbol id="heart" viewBox="0 0 20 20">
<path d="M9.9 19C9.6 19 9.3 18.9 9.1 18.6C3.7 12.5 2.4 11.1 2.1 10.7C1.4 9.8 1 8.6 1 7.4C1 4.4 3.4 2 6.5 2C7.8 2 9 2.5 10 3.3C11 2.5 12.3 2 13.5 2C16.5 2 19 4.4 19 7.4C19 8.7 18.5 9.9 17.7 10.8L10.7 18.7C10.5 18.9 10.3 19 9.9 19ZM3.9 9.5C4.2 9.9 7.4 13.5 10 16.4L16.2 9.4C16.7 8.9 16.9 8.2 16.9 7.4C16.9 5.6 15.4 4.1 13.6 4.1C12.6 4.1 11.6 4.6 10.9 5.4C10.6 5.7 10.3 5.8 10 5.8C9.7 5.8 9.4 5.6 9.2 5.4C8.5 4.6 7.5 4.1 6.5 4.1C4.7 4.1 3.2 5.6 3.2 7.4C3.1 8.3 3.5 9 3.9 9.5C3.8 9.5 3.8 9.5 3.9 9.5Z" fill="black"/>
</symbol><symbol id="home" viewBox="0 0 13 15">
<path d="M6.5 0.5L0.5 6.30006V12.5001H12.5V6.30006L6.5 0.5ZM11.5 11.5001H1.5V6.70005L6.5 1.9L11.5 6.70005V11.5001Z" fill="white"/>
<path d="M4.5 10.5001H5.5V8.00005H7.5V10.5001H8.5V7.00005H4.5V10.5001Z" fill="white"/>
</symbol><symbol id="info" viewBox="0 0 2 12">
<path fill-rule="evenodd" clip-rule="evenodd" d="M0 0H2V2H0V0ZM2 12H0V3H2V12Z" fill="white"/>
</symbol><symbol id="search" viewBox="0 0 20 20">
<path d="M19.5 18.0083L15.8 14.3287C16.8 13.0359 17.5 11.3453 17.5 9.4558C17.5 5.08011 13.9 1.5 9.5 1.5C5.1 1.5 1.5 5.17956 1.5 9.55525C1.5 13.9309 5.1 17.511 9.5 17.511C11.3 17.511 13 16.9144 14.4 15.8204L18.1 19.5L19.5 18.0083ZM9.5 15.5221C6.2 15.5221 3.5 12.837 3.5 9.55525C3.5 6.27348 6.2 3.5884 9.5 3.5884C12.8 3.5884 15.5 6.27348 15.5 9.55525C15.5 12.837 12.8 15.5221 9.5 15.5221Z" fill="black"/>
</symbol><symbol id="souvenirs" viewBox="0 0 76 76">
<path d="M67.6 22.4625H67.5H42.8C56.6 15.5576 57.7 11.1546 57.2 8.75288C56 4.75007 51.5 1.74797 47.2 3.34909C41.6 5.45056 40.1 13.7564 38.6 19.7606C36.6 13.6563 34.8 5.95091 30.4 2.04818C29.1 0.947407 27.3 -0.253434 24.6 0.0467764C20.6 0.447057 14.8 5.45056 17.1 11.0545C19.4 16.4583 26.8 19.8607 31.7 22.5626H9.7H9.4C7.8 22.5626 6.5 23.8635 6.5 25.4646V36.7725C6.5 38.3736 7.8 39.6745 9.4 39.6745H9.7V72.9979V75.3996V76H67.5V75.4996V72.9979V39.5745H67.6C69.2 39.5745 70.5 38.2736 70.5 36.6724V25.3645C70.5 23.7634 69.2 22.4625 67.6 22.4625ZM48.9 5.85084C51 5.55063 53.9 7.15176 54.2 9.05309C54.6 11.8551 50.8 14.3568 49.1 15.4576C46.6 17.1588 44.2 18.0594 41.8 19.5604C42.7 15.8579 44.3 6.55133 48.9 5.85084ZM26 15.8579C23.8 14.3568 19.5 11.4548 19.6 8.05239C19.7 4.44986 25.3 1.44776 28.4 4.14965C32.3 7.55203 34.1 15.2574 35.5 20.7613C32.3 19.2602 29.2 17.9593 26 15.8579ZM32 72.9979H12.6V39.5745H32V72.9979ZM32 36.4723H9.5V25.4646H32V36.4723ZM42.2 36.4723V39.4744V72.9979H35V39.5745V36.5724V25.5647H42.2V36.4723ZM64.5 72.9979H45.1V39.5745H64.5V72.9979ZM67.4 36.4723H45.1V25.4646H67.4V36.4723Z" fill="#83B3D3"/>
</symbol><symbol id="star" viewBox="0 0 18 17">
<g clip-path="url(#clip0_47805_160)">
<path d="M9 0L11.1 6.5H18L12.4 10.5L14.6 17L9 13L3.4 17L5.6 10.5L0 6.5H6.9L9 0Z" fill="#83B3D3"/>
</g>

</symbol><symbol id="telegram" viewBox="0 0 18 17">
<path d="M16.785 0.955705L0.840489 7.1042C-0.247661 7.54126 -0.241365 8.14828 0.640845 8.41897L4.73445 9.69597L14.2058 3.72014C14.6537 3.44766 15.0629 3.59424 14.7265 3.89281L7.05283 10.8183H7.05103L7.05283 10.8192L6.77045 15.0387C7.18413 15.0387 7.36669 14.8489 7.59871 14.625L9.58705 12.6915L13.7229 15.7464C14.4855 16.1664 15.0332 15.9506 15.2229 15.0405L17.9379 2.2453C18.2158 1.13107 17.5126 0.626562 16.785 0.955705Z" fill="#83B3D3"/>
</symbol><symbol id="tick" viewBox="0 0 13 11">
<path d="M11 0.5L4.5 7.9L1.1 4L0 5.2L4.5 10.4L12.2 1.8L11 0.5Z" fill="#3F5E72"/>
</symbol><symbol id="view-full" viewBox="0 0 16 14">
<path d="M16 12H0V14H16V12Z" fill="black"/>
<path d="M14 2V8H2V2H14ZM16 0H0V10H16V0Z" fill="black"/>
</symbol><symbol id="view-row" viewBox="0 0 16 14">
<g clip-path="url(#clip0_47805_94)">
<path d="M2 0H0V2H2V0Z" fill="black"/>
<path d="M16 0H4V2H16V0Z" fill="black"/>
<path d="M2 4H0V6H2V4Z" fill="black"/>
<path d="M16 4H4V6H16V4Z" fill="black"/>
<path d="M2 8H0V10H2V8Z" fill="black"/>
<path d="M16 8H4V10H16V8Z" fill="black"/>
<path d="M2 12H0V14H2V12Z" fill="black"/>
<path d="M16 12H4V14H16V12Z" fill="black"/>
</g>

</symbol><symbol id="view-tile" viewBox="0 0 16 14">
<g clip-path="url(#clip0_47805_56)">
<path d="M4 0H0V6H4V0Z" fill="black"/>
<path d="M16 0H12V6H16V0Z" fill="black"/>
<path d="M10 0H6V6H10V0Z" fill="black"/>
<path d="M4 8H0V14H4V8Z" fill="black"/>
<path d="M16 8H12V14H16V8Z" fill="black"/>
<path d="M10 8H6V14H10V8Z" fill="black"/>
</g>

</symbol><symbol id="vk" viewBox="0 0 25 15">
<path fill-rule="evenodd" clip-rule="evenodd" d="M24.1164 1.80445C24.2824 1.25845 24.1164 0.856445 23.3214 0.856445H20.6964C20.0284 0.856445 19.7204 1.20345 19.5534 1.58645C19.5534 1.58645 18.2184 4.78245 16.3274 6.85845C15.7154 7.46045 15.4374 7.65145 15.1034 7.65145C14.9364 7.65145 14.6854 7.46045 14.6854 6.91345V1.80445C14.6854 1.14845 14.5014 0.856445 13.9454 0.856445H9.81738C9.40038 0.856445 9.14938 1.16045 9.14938 1.44945C9.14938 2.07045 10.0954 2.21445 10.1924 3.96245V7.76045C10.1924 8.59345 10.0394 8.74444 9.70538 8.74444C8.81538 8.74444 6.65038 5.53345 5.36538 1.85945C5.11638 1.14445 4.86438 0.856445 4.19338 0.856445H1.56638C0.816382 0.856445 0.666382 1.20345 0.666382 1.58645C0.666382 2.26845 1.55638 5.65645 4.81138 10.1374C6.98138 13.1974 10.0364 14.8564 12.8194 14.8564C14.4884 14.8564 14.6944 14.4884 14.6944 13.8534V11.5404C14.6944 10.8034 14.8524 10.6564 15.3814 10.6564C15.7714 10.6564 16.4384 10.8484 17.9964 12.3234C19.7764 14.0724 20.0694 14.8564 21.0714 14.8564H23.6964C24.4464 14.8564 24.8224 14.4884 24.6064 13.7604C24.3684 13.0364 23.5184 11.9854 22.3914 10.7384C21.7794 10.0284 20.8614 9.26345 20.5824 8.88045C20.1934 8.38945 20.3044 8.17044 20.5824 7.73345C20.5824 7.73345 23.7824 3.30745 24.1154 1.80445H24.1164Z" fill="#83B3D3"/>
</symbol><symbol id="youtube" viewBox="0 0 23 18">
<path d="M18.9402 0.356445H3.50738C1.64668 0.356445 0.333252 1.9502 0.333252 3.75645V13.8502C0.333252 15.7627 1.64668 17.3564 3.50738 17.3564H19.1591C20.8009 17.3564 22.3333 15.7627 22.3333 13.9564V3.75645C22.1143 1.9502 20.8009 0.356445 18.9402 0.356445ZM7.99494 12.8939V4.81894L15.3283 8.85645L7.99494 12.8939Z" fill="#83B3D3"/>
</symbol></svg>